<svg id="aae50c0e-5ab8-4cd3-99b7-398e63a9e7a7" data-name="Layer 1" xmlns="http://www.w3.org/2000/svg" viewBox="0 0 100 100"><defs><style>.ab7adba3-fb48-4859-a54d-cb6c9f9a6587{fill:none;stroke:#fff;stroke-linecap:round;stroke-linejoin:round;stroke-width:5px;}</style></defs><title>leaf</title><path id="fe5f1dbf-5887-4268-abc3-c068dd17bf8f" data-name="Path 7" class="ab7adba3-fb48-4859-a54d-cb6c9f9a6587" d="M50.69,96.21,72.45,72.77a2.12,2.12,0,0,0,.51-1L76.9,47.6a2.07,2.07,0,0,0-.14-1.13L66,22a1.91,1.91,0,0,0-.33-.52l-15-17"/><path id="b38c2e24-7594-4de9-9ba9-44f6588c1e4a" data-name="Path 8" class="ab7adba3-fb48-4859-a54d-cb6c9f9a6587" d="M53.37,96.21,31.61,72.77a2,2,0,0,1-.5-1L27.16,47.6a2.07,2.07,0,0,1,.14-1.13L38,22a1.91,1.91,0,0,1,.33-.52l15-17"/></svg>