<svg id="e7aaed21-4f5c-4099-a25c-35f2e7061e27" data-name="Layer 1" xmlns="http://www.w3.org/2000/svg" viewBox="0 0 100 100"><defs><style>.f2e46bd1-d58c-4594-bce6-ded3320f7dce{fill:none;stroke:#fff;stroke-width:5px;}</style></defs><title>cog</title><circle class="f2e46bd1-d58c-4594-bce6-ded3320f7dce" cx="50.37" cy="50.5" r="17.23"/><path id="b1405eb5-af16-4273-851d-e624aa300201" data-name="Path 23" class="f2e46bd1-d58c-4594-bce6-ded3320f7dce" d="M37.31,18.88l-4-8.51a2,2,0,0,1,1.42-2.82l13.86-2.7a2,2,0,0,1,2.38,1.87l.44,9.91A2,2,0,0,0,53,18.51l9,1.68A2,2,0,0,0,64.19,19l3.57-8.6a2,2,0,0,1,3-.85L80.9,16.91a2,2,0,0,1,.32,2.95L74.8,27a2,2,0,0,0-.14,2.49l5.56,7.82a2,2,0,0,0,2.46.66l8.17-3.72a2,2,0,0,1,2.79,1.44L96,48.15a2,2,0,0,1-2,2.38H83.73a2,2,0,0,0-2,1.78l-1,9.29a2,2,0,0,0,1.09,2l9.25,4.69a2,2,0,0,1,.71,3L84.15,81.64a2,2,0,0,1-3.1.16L75,75.09a2,2,0,0,0-2.66-.27l-7.39,5.4a2,2,0,0,0-.64,2.45l3.42,7.46a2,2,0,0,1-1.42,2.79l-13,2.65a2,2,0,0,1-2.4-2V84.48a2,2,0,0,0-1.76-2l-9.56-1.14a2,2,0,0,0-2,1.13l-3.73,7.88a2,2,0,0,1-2.88.84l-11.08-7a2,2,0,0,1-.2-3.24l6.55-5.38a2,2,0,0,0,.34-2.74l-6.29-8.42a2,2,0,0,0-2.61-.53l-7,4.07a2,2,0,0,1-3-1.33L4.88,53a2,2,0,0,1,2-2.4h8.84a2,2,0,0,0,2-1.76L19,38.1a2,2,0,0,0-1-2l-7.75-4.19A2,2,0,0,1,9.49,29l6.74-9.63A2,2,0,0,1,19.11,19l8.31,6.61a2,2,0,0,0,2.31.13l6.83-4.27A2,2,0,0,0,37.31,18.88Z"/></svg>