<svg id="af63b1ae-95a5-4f74-893a-8fd09a4fe2b9" data-name="Layer 1" xmlns="http://www.w3.org/2000/svg" viewBox="0 0 100 100"><defs><style>.f64b84e9-b312-4784-be15-e8d81f1d1165{fill:none;stroke:#fff;stroke-width:5px;}</style></defs><title>leaf</title><path id="b7671628-5760-4ba8-b88f-3b4e5cf99698" data-name="Path 7" class="f64b84e9-b312-4784-be15-e8d81f1d1165" d="M50.69,96.21,72.45,72.77a2.12,2.12,0,0,0,.51-1L76.9,47.6a2.07,2.07,0,0,0-.14-1.13L66,22a1.91,1.91,0,0,0-.33-.52l-15-17"/><path id="b8b5a653-d692-46b2-95ed-a2ccbcfce117" data-name="Path 8" class="f64b84e9-b312-4784-be15-e8d81f1d1165" d="M53.37,96.21,31.61,72.77a2,2,0,0,1-.5-1L27.16,47.6a2.07,2.07,0,0,1,.14-1.13L38,22a1.91,1.91,0,0,1,.33-.52l15-17"/></svg>