<svg width="100" height="100" viewBox="0 0 100 100" fill="none" xmlns="http://www.w3.org/2000/svg">
<path d="M20.4513 33.4744L30.2757 26.8168M30.2757 26.8168L31.7991 33.4744M30.2757 26.8168L37.9085 21.6443M30.2757 26.8168L21.9198 24.1959M37.9085 21.6443L45.3604 16.9652M37.9085 21.6443L41.0109 28.6016M37.9085 21.6443L31.7991 16.3859M45.3604 16.9652L45.6999 19.2491M45.3604 16.9652L43.8883 15.1657M77.3377 53.5648L77.5736 53.9834L82.8738 64.0065L73.8477 61.9074L77.3377 53.5648ZM77.3377 53.5648L84.1333 53.2487M77.3377 53.5648L72.2393 44.5204M67.4703 37.8984L67.6272 38.1163M67.6272 38.1163L72.2393 44.5204M67.6272 38.1163L66.2166 39.0092M67.6272 38.1163L68.9406 37.2848M72.2393 44.5204L66.6059 52.4615M72.2393 44.5204L80.04 43.173M52.2788 78.3944L55.2154 77.6602L52.2788 60.6933L54.155 42.4212L64.1068 36.7112L66.3092 38.5873V52.4545L73.8954 61.8353L83.113 64.1193L84.1734 52.8624L80.1764 43.1553L69.5721 37.69L64.8409 33.0404L54.5628 38.5873L55.2154 32.6326L49.7501 15.9919L45.9162 15.1762L31.6412 15.9919L21.6894 24.0675L20.2211 33.4483H31.6412L41.6745 28.7987L45.9162 18.6838L47.6293 18.0312L52.2788 33.0404L49.2607 60.6933L52.2788 78.3944Z" stroke="#4CAF7B"/>
</svg>
