<svg width="359" height="126" viewBox="0 0 359 126" fill="none" xmlns="http://www.w3.org/2000/svg">
<g clip-path="url(#clip0)">
<rect x="274.851" y="26.958" width="83.3399" height="98.3117" rx="5.5" stroke="#65E2A0"/>
<g filter="url(#filter0_d)">
<rect y="37.9467" width="89.6741" height="30.0575" rx="6" fill="#65E2A0"/>
</g>
<g filter="url(#filter1_d)">
<rect x="132.443" y="61.5744" width="105.479" height="30.0575" rx="6" fill="#65E2A0"/>
</g>
<g filter="url(#filter2_d)">
<rect x="280.69" y="44.0355" width="71.4717" height="30.0575" rx="6" fill="#65E2A0"/>
</g>
<g filter="url(#filter3_d)">
<rect x="280.69" y="90.6919" width="71.4717" height="30.0575" rx="6" fill="#65E2A0"/>
</g>
<g filter="url(#filter4_d)">
<rect x="151.347" width="67.67" height="30.0575" rx="6" fill="#65E2A0"/>
</g>
<g filter="url(#filter5_d)">
<rect x="23.7047" y="84.6031" width="65.9694" height="30.0575" rx="6" fill="#65E2A0"/>
</g>
<path d="M17.7051 48.4554C17.8491 48.4554 17.9611 48.5034 18.0411 48.5994C18.1211 48.6874 18.1611 48.8074 18.1611 48.9594V56.5314C18.1611 56.6834 18.1171 56.8074 18.0291 56.9034C17.9491 56.9914 17.8331 57.0354 17.6811 57.0354C17.5291 57.0354 17.3971 56.9674 17.2851 56.8314L12.3051 50.1714V56.5314C12.3051 56.6834 12.2611 56.8074 12.1731 56.9034C12.0931 56.9914 11.9811 57.0354 11.8371 57.0354C11.6931 57.0354 11.5811 56.9914 11.5011 56.9034C11.4211 56.8074 11.3811 56.6834 11.3811 56.5314V48.9594C11.3811 48.8074 11.4211 48.6874 11.5011 48.5994C11.5891 48.5034 11.7091 48.4554 11.8611 48.4554C12.0211 48.4554 12.1571 48.5234 12.2691 48.6594L17.2371 55.3194V48.9594C17.2371 48.8074 17.2771 48.6874 17.3571 48.5994C17.4451 48.5034 17.5611 48.4554 17.7051 48.4554ZM22.5322 57.0594C21.9802 57.0594 21.4922 56.9354 21.0682 56.6874C20.6522 56.4394 20.3282 56.0874 20.0962 55.6314C19.8722 55.1674 19.7602 54.6314 19.7602 54.0234C19.7602 53.4154 19.8722 52.8834 20.0962 52.4274C20.3282 51.9634 20.6522 51.6074 21.0682 51.3594C21.4922 51.1114 21.9802 50.9874 22.5322 50.9874C23.0842 50.9874 23.5722 51.1114 23.9962 51.3594C24.4202 51.6074 24.7442 51.9634 24.9682 52.4274C25.2002 52.8834 25.3162 53.4154 25.3162 54.0234C25.3162 54.6314 25.2002 55.1674 24.9682 55.6314C24.7442 56.0874 24.4202 56.4394 23.9962 56.6874C23.5722 56.9354 23.0842 57.0594 22.5322 57.0594ZM22.5322 56.2554C23.1082 56.2554 23.5482 56.0674 23.8522 55.6914C24.1642 55.3074 24.3202 54.7514 24.3202 54.0234C24.3202 53.3114 24.1642 52.7634 23.8522 52.3794C23.5402 51.9874 23.1002 51.7914 22.5322 51.7914C21.9642 51.7914 21.5242 51.9874 21.2122 52.3794C20.9002 52.7634 20.7442 53.3114 20.7442 54.0234C20.7442 54.7434 20.8962 55.2954 21.2002 55.6794C21.5122 56.0634 21.9562 56.2554 22.5322 56.2554ZM31.4564 48.4554C31.6084 48.4554 31.7284 48.4994 31.8164 48.5874C31.9044 48.6754 31.9484 48.7874 31.9484 48.9234V56.5554C31.9484 56.6994 31.9044 56.8154 31.8164 56.9034C31.7284 56.9914 31.6084 57.0354 31.4564 57.0354C31.3044 57.0354 31.1844 56.9914 31.0964 56.9034C31.0164 56.8154 30.9764 56.6994 30.9764 56.5554V55.9074C30.8004 56.2754 30.5404 56.5594 30.1964 56.7594C29.8604 56.9594 29.4644 57.0594 29.0084 57.0594C28.4964 57.0594 28.0444 56.9314 27.6524 56.6754C27.2604 56.4194 26.9564 56.0634 26.7404 55.6074C26.5244 55.1434 26.4164 54.6074 26.4164 53.9994C26.4164 53.3994 26.5244 52.8714 26.7404 52.4154C26.9564 51.9594 27.2604 51.6074 27.6524 51.3594C28.0444 51.1114 28.4964 50.9874 29.0084 50.9874C29.4644 50.9874 29.8604 51.0874 30.1964 51.2874C30.5404 51.4874 30.8004 51.7714 30.9764 52.1394V48.9234C30.9764 48.7794 31.0164 48.6674 31.0964 48.5874C31.1844 48.4994 31.3044 48.4554 31.4564 48.4554ZM29.2004 56.2554C29.7684 56.2554 30.2044 56.0634 30.5084 55.6794C30.8204 55.2874 30.9764 54.7354 30.9764 54.0234C30.9764 53.3114 30.8204 52.7634 30.5084 52.3794C30.2044 51.9954 29.7684 51.8034 29.2004 51.8034C28.6324 51.8034 28.1884 51.9954 27.8684 52.3794C27.5564 52.7634 27.4004 53.3034 27.4004 53.9994C27.4004 54.7114 27.5564 55.2674 27.8684 55.6674C28.1884 56.0594 28.6324 56.2554 29.2004 56.2554ZM38.2728 55.6194C38.3608 55.6194 38.4368 55.6554 38.5008 55.7274C38.5648 55.7994 38.5968 55.8914 38.5968 56.0034C38.5968 56.2034 38.4568 56.3874 38.1768 56.5554C37.8888 56.7234 37.5848 56.8514 37.2648 56.9394C36.9448 57.0194 36.6328 57.0594 36.3288 57.0594C35.4248 57.0594 34.7088 56.7914 34.1808 56.2554C33.6608 55.7194 33.4008 54.9794 33.4008 54.0354C33.4008 53.4354 33.5168 52.9074 33.7488 52.4514C33.9808 51.9874 34.3048 51.6274 34.7208 51.3714C35.1448 51.1154 35.6248 50.9874 36.1608 50.9874C36.9208 50.9874 37.5248 51.2354 37.9728 51.7314C38.4208 52.2274 38.6448 52.8994 38.6448 53.7474C38.6448 53.9074 38.6128 54.0234 38.5488 54.0954C38.4848 54.1674 38.3808 54.2034 38.2368 54.2034H34.3728C34.4448 55.5794 35.0968 56.2674 36.3288 56.2674C36.6408 56.2674 36.9088 56.2274 37.1328 56.1474C37.3568 56.0594 37.5968 55.9434 37.8528 55.7994C38.0608 55.6794 38.2008 55.6194 38.2728 55.6194ZM36.1728 51.7434C35.6608 51.7434 35.2488 51.9034 34.9368 52.2234C34.6328 52.5434 34.4528 52.9954 34.3968 53.5794H37.7928C37.7768 52.9874 37.6288 52.5354 37.3488 52.2234C37.0688 51.9034 36.6768 51.7434 36.1728 51.7434ZM42.9209 57.0714C42.3209 57.0714 41.7449 56.9834 41.1929 56.8074C40.6489 56.6234 40.2129 56.3794 39.8849 56.0754C39.7649 55.9634 39.7049 55.8234 39.7049 55.6554C39.7049 55.5434 39.7369 55.4474 39.8009 55.3674C39.8649 55.2794 39.9409 55.2354 40.0289 55.2354C40.1329 55.2354 40.2449 55.2794 40.3649 55.3674C41.1089 55.9434 41.9569 56.2314 42.9089 56.2314C43.5969 56.2314 44.1249 56.0994 44.4929 55.8354C44.8609 55.5714 45.0449 55.1954 45.0449 54.7074C45.0449 54.4274 44.9569 54.2034 44.7809 54.0354C44.6049 53.8594 44.3729 53.7194 44.0849 53.6154C43.7969 53.5114 43.4089 53.4034 42.9209 53.2914C42.2649 53.1394 41.7249 52.9794 41.3009 52.8114C40.8849 52.6434 40.5449 52.4034 40.2809 52.0914C40.0249 51.7794 39.8969 51.3714 39.8969 50.8674C39.8969 50.3874 40.0249 49.9634 40.2809 49.5954C40.5449 49.2194 40.9089 48.9314 41.3729 48.7314C41.8449 48.5234 42.3809 48.4194 42.9809 48.4194C43.5409 48.4194 44.0609 48.5074 44.5409 48.6834C45.0289 48.8514 45.4369 49.0954 45.7649 49.4154C45.8929 49.5434 45.9569 49.6834 45.9569 49.8354C45.9569 49.9474 45.9249 50.0474 45.8609 50.1354C45.7969 50.2154 45.7209 50.2554 45.6329 50.2554C45.5449 50.2554 45.4289 50.2114 45.2849 50.1234C44.8929 49.8034 44.5289 49.5794 44.1929 49.4514C43.8569 49.3234 43.4529 49.2594 42.9809 49.2594C42.3169 49.2594 41.8009 49.3994 41.4329 49.6794C41.0649 49.9514 40.8809 50.3354 40.8809 50.8314C40.8809 51.2554 41.0409 51.5754 41.3609 51.7914C41.6889 51.9994 42.1889 52.1834 42.8609 52.3434C43.5889 52.5194 44.1609 52.6834 44.5769 52.8354C44.9929 52.9794 45.3369 53.1994 45.6089 53.4954C45.8889 53.7914 46.0289 54.1874 46.0289 54.6834C46.0289 55.1554 45.8969 55.5714 45.6329 55.9314C45.3769 56.2914 45.0129 56.5714 44.5409 56.7714C44.0689 56.9714 43.5289 57.0714 42.9209 57.0714ZM51.6248 51.3114C51.7128 51.1194 51.8528 51.0234 52.0448 51.0234C52.1648 51.0234 52.2728 51.0634 52.3688 51.1434C52.4648 51.2234 52.5128 51.3234 52.5128 51.4434C52.5128 51.5154 52.4968 51.5794 52.4648 51.6354L49.0928 58.9074C49.0528 58.9954 48.9928 59.0634 48.9128 59.1114C48.8408 59.1594 48.7648 59.1834 48.6848 59.1834C48.5648 59.1834 48.4568 59.1434 48.3608 59.0634C48.2728 58.9914 48.2288 58.8954 48.2288 58.7754C48.2288 58.7114 48.2448 58.6474 48.2768 58.5834L49.1168 56.7714L46.7408 51.6354C46.7088 51.5794 46.6928 51.5194 46.6928 51.4554C46.6928 51.3354 46.7448 51.2314 46.8488 51.1434C46.9608 51.0554 47.0808 51.0114 47.2088 51.0114C47.2888 51.0114 47.3648 51.0354 47.4368 51.0834C47.5168 51.1314 47.5768 51.1994 47.6168 51.2874L49.6208 55.7874L51.6248 51.3114ZM55.4394 57.0594C55.0714 57.0594 54.7194 57.0154 54.3834 56.9274C54.0554 56.8394 53.7634 56.7154 53.5074 56.5554C53.3634 56.4594 53.2594 56.3714 53.1954 56.2914C53.1394 56.2034 53.1114 56.0994 53.1114 55.9794C53.1114 55.8754 53.1394 55.7914 53.1954 55.7274C53.2594 55.6554 53.3394 55.6194 53.4354 55.6194C53.5314 55.6194 53.6714 55.6794 53.8554 55.7994C54.0954 55.9434 54.3314 56.0594 54.5634 56.1474C54.8034 56.2274 55.0994 56.2674 55.4514 56.2674C55.8834 56.2674 56.2194 56.1914 56.4594 56.0394C56.6994 55.8874 56.8194 55.6674 56.8194 55.3794C56.8194 55.2034 56.7754 55.0634 56.6874 54.9594C56.5994 54.8474 56.4474 54.7514 56.2314 54.6714C56.0154 54.5834 55.6994 54.4954 55.2834 54.4074C54.5794 54.2554 54.0754 54.0514 53.7714 53.7954C53.4674 53.5394 53.3154 53.1914 53.3154 52.7514C53.3154 52.4074 53.4114 52.1034 53.6034 51.8394C53.7954 51.5754 54.0594 51.3674 54.3954 51.2154C54.7394 51.0634 55.1274 50.9874 55.5594 50.9874C55.8714 50.9874 56.1714 51.0314 56.4594 51.1194C56.7554 51.1994 57.0154 51.3154 57.2394 51.4674C57.5114 51.6594 57.6474 51.8594 57.6474 52.0674C57.6474 52.1714 57.6154 52.2594 57.5514 52.3314C57.4874 52.4034 57.4114 52.4394 57.3234 52.4394C57.2274 52.4394 57.0834 52.3714 56.8914 52.2354C56.6674 52.0914 56.4554 51.9794 56.2554 51.8994C56.0554 51.8194 55.8074 51.7794 55.5114 51.7794C55.1354 51.7794 54.8314 51.8634 54.5994 52.0314C54.3754 52.1994 54.2634 52.4234 54.2634 52.7034C54.2634 52.8794 54.3034 53.0234 54.3834 53.1354C54.4714 53.2394 54.6114 53.3354 54.8034 53.4234C55.0034 53.5034 55.2874 53.5834 55.6554 53.6634C56.1994 53.7834 56.6194 53.9154 56.9154 54.0594C57.2194 54.2034 57.4354 54.3794 57.5634 54.5874C57.6914 54.7954 57.7554 55.0594 57.7554 55.3794C57.7554 55.8834 57.5434 56.2914 57.1194 56.6034C56.6954 56.9074 56.1354 57.0594 55.4394 57.0594ZM61.8785 56.2674C62.1585 56.2914 62.2985 56.4194 62.2985 56.6514C62.2985 56.7874 62.2465 56.8914 62.1425 56.9634C62.0465 57.0274 61.8985 57.0514 61.6985 57.0354L61.3745 57.0114C60.7345 56.9634 60.2625 56.7714 59.9585 56.4354C59.6545 56.0994 59.5025 55.5914 59.5025 54.9114V51.8994H58.6985C58.5625 51.8994 58.4545 51.8674 58.3745 51.8034C58.3025 51.7314 58.2665 51.6394 58.2665 51.5274C58.2665 51.4074 58.3025 51.3114 58.3745 51.2394C58.4545 51.1674 58.5625 51.1314 58.6985 51.1314H59.5025V49.7754C59.5025 49.6234 59.5465 49.5074 59.6345 49.4274C59.7225 49.3394 59.8425 49.2954 59.9945 49.2954C60.1385 49.2954 60.2545 49.3394 60.3425 49.4274C60.4305 49.5074 60.4745 49.6234 60.4745 49.7754V51.1314H61.8065C61.9345 51.1314 62.0345 51.1674 62.1065 51.2394C62.1865 51.3114 62.2265 51.4074 62.2265 51.5274C62.2265 51.6394 62.1865 51.7314 62.1065 51.8034C62.0345 51.8674 61.9345 51.8994 61.8065 51.8994H60.4745V54.9594C60.4745 55.3994 60.5625 55.7194 60.7385 55.9194C60.9225 56.1114 61.1945 56.2194 61.5545 56.2434L61.8785 56.2674ZM67.7806 55.6194C67.8686 55.6194 67.9446 55.6554 68.0086 55.7274C68.0726 55.7994 68.1046 55.8914 68.1046 56.0034C68.1046 56.2034 67.9646 56.3874 67.6846 56.5554C67.3966 56.7234 67.0926 56.8514 66.7726 56.9394C66.4526 57.0194 66.1406 57.0594 65.8366 57.0594C64.9326 57.0594 64.2166 56.7914 63.6886 56.2554C63.1686 55.7194 62.9086 54.9794 62.9086 54.0354C62.9086 53.4354 63.0246 52.9074 63.2566 52.4514C63.4886 51.9874 63.8126 51.6274 64.2286 51.3714C64.6526 51.1154 65.1326 50.9874 65.6686 50.9874C66.4286 50.9874 67.0326 51.2354 67.4806 51.7314C67.9286 52.2274 68.1526 52.8994 68.1526 53.7474C68.1526 53.9074 68.1206 54.0234 68.0566 54.0954C67.9926 54.1674 67.8886 54.2034 67.7446 54.2034H63.8806C63.9526 55.5794 64.6046 56.2674 65.8366 56.2674C66.1486 56.2674 66.4166 56.2274 66.6406 56.1474C66.8646 56.0594 67.1046 55.9434 67.3606 55.7994C67.5686 55.6794 67.7086 55.6194 67.7806 55.6194ZM65.6806 51.7434C65.1686 51.7434 64.7566 51.9034 64.4446 52.2234C64.1406 52.5434 63.9606 52.9954 63.9046 53.5794H67.3006C67.2846 52.9874 67.1366 52.5354 66.8566 52.2234C66.5766 51.9034 66.1846 51.7434 65.6806 51.7434ZM76.0887 50.9874C77.3847 50.9874 78.0327 51.7594 78.0327 53.3034V56.5554C78.0327 56.7074 77.9887 56.8274 77.9007 56.9154C77.8127 56.9954 77.6967 57.0354 77.5527 57.0354C77.4087 57.0354 77.2887 56.9954 77.1927 56.9154C77.1047 56.8274 77.0607 56.7074 77.0607 56.5554V53.3274C77.0607 52.7914 76.9647 52.4034 76.7727 52.1634C76.5807 51.9234 76.2807 51.8034 75.8727 51.8034C75.3847 51.8034 75.0007 51.9674 74.7207 52.2954C74.4407 52.6234 74.3007 53.0674 74.3007 53.6274V56.5554C74.3007 56.7074 74.2527 56.8274 74.1567 56.9154C74.0687 56.9954 73.9527 57.0354 73.8087 57.0354C73.6647 57.0354 73.5487 56.9954 73.4607 56.9154C73.3727 56.8274 73.3287 56.7074 73.3287 56.5554V53.3274C73.3287 52.7914 73.2327 52.4034 73.0407 52.1634C72.8487 51.9234 72.5447 51.8034 72.1287 51.8034C71.6487 51.8034 71.2647 51.9674 70.9767 52.2954C70.6967 52.6234 70.5567 53.0674 70.5567 53.6274V56.5554C70.5567 56.7074 70.5127 56.8274 70.4247 56.9154C70.3367 56.9954 70.2207 57.0354 70.0767 57.0354C69.9327 57.0354 69.8127 56.9954 69.7167 56.9154C69.6287 56.8274 69.5847 56.7074 69.5847 56.5554V51.4914C69.5847 51.3474 69.6287 51.2314 69.7167 51.1434C69.8127 51.0554 69.9327 51.0114 70.0767 51.0114C70.2127 51.0114 70.3247 51.0554 70.4127 51.1434C70.5007 51.2234 70.5447 51.3354 70.5447 51.4794V52.0554C70.7207 51.7114 70.9647 51.4474 71.2767 51.2634C71.5887 51.0794 71.9487 50.9874 72.3567 50.9874C73.2687 50.9874 73.8647 51.3714 74.1447 52.1394C74.3127 51.7874 74.5687 51.5074 74.9127 51.2994C75.2567 51.0914 75.6487 50.9874 76.0887 50.9874Z" fill="#303030"/>
<path d="M144.316 80.6631C144.164 80.6631 144.044 80.6191 143.956 80.5311C143.868 80.4351 143.824 80.3111 143.824 80.1591V72.6231C143.824 72.4791 143.868 72.3631 143.956 72.2751C144.052 72.1871 144.176 72.1431 144.328 72.1431H147.172C148.06 72.1431 148.748 72.3591 149.236 72.7911C149.732 73.2231 149.98 73.8351 149.98 74.6271C149.98 75.4191 149.732 76.0351 149.236 76.4751C148.74 76.9151 148.052 77.1351 147.172 77.1351H144.808V80.1591C144.808 80.3111 144.764 80.4351 144.676 80.5311C144.588 80.6191 144.468 80.6631 144.316 80.6631ZM147.076 76.3191C148.364 76.3191 149.008 75.7551 149.008 74.6271C149.008 73.5151 148.364 72.9591 147.076 72.9591H144.808V76.3191H147.076ZM154.189 74.6391C154.525 74.6151 154.693 74.7511 154.693 75.0471C154.693 75.1751 154.657 75.2791 154.585 75.3591C154.513 75.4311 154.389 75.4751 154.213 75.4911L153.853 75.5271C153.317 75.5751 152.917 75.7671 152.653 76.1031C152.397 76.4311 152.269 76.8191 152.269 77.2671V80.1831C152.269 80.3431 152.225 80.4631 152.137 80.5431C152.049 80.6231 151.933 80.6631 151.789 80.6631C151.645 80.6631 151.525 80.6231 151.429 80.5431C151.341 80.4551 151.297 80.3351 151.297 80.1831V75.1191C151.297 74.9671 151.345 74.8511 151.441 74.7711C151.537 74.6831 151.653 74.6391 151.789 74.6391C151.917 74.6391 152.025 74.6831 152.113 74.7711C152.201 74.8511 152.245 74.9631 152.245 75.1071V75.7791C152.413 75.4271 152.649 75.1591 152.953 74.9751C153.265 74.7911 153.621 74.6831 154.021 74.6511L154.189 74.6391ZM157.834 80.6871C157.282 80.6871 156.794 80.5631 156.37 80.3151C155.954 80.0671 155.63 79.7151 155.398 79.2591C155.174 78.7951 155.062 78.2591 155.062 77.6511C155.062 77.0431 155.174 76.5111 155.398 76.0551C155.63 75.5911 155.954 75.2351 156.37 74.9871C156.794 74.7391 157.282 74.6151 157.834 74.6151C158.386 74.6151 158.874 74.7391 159.298 74.9871C159.722 75.2351 160.046 75.5911 160.27 76.0551C160.502 76.5111 160.618 77.0431 160.618 77.6511C160.618 78.2591 160.502 78.7951 160.27 79.2591C160.046 79.7151 159.722 80.0671 159.298 80.3151C158.874 80.5631 158.386 80.6871 157.834 80.6871ZM157.834 79.8831C158.41 79.8831 158.85 79.6951 159.154 79.3191C159.466 78.9351 159.622 78.3791 159.622 77.6511C159.622 76.9391 159.466 76.3911 159.154 76.0071C158.842 75.6151 158.402 75.4191 157.834 75.4191C157.266 75.4191 156.826 75.6151 156.514 76.0071C156.202 76.3911 156.046 76.9391 156.046 77.6511C156.046 78.3711 156.198 78.9231 156.502 79.3071C156.814 79.6911 157.258 79.8831 157.834 79.8831ZM160.854 82.7871C160.654 82.8031 160.506 82.7751 160.41 82.7031C160.306 82.6391 160.254 82.5391 160.254 82.4031C160.254 82.1871 160.394 82.0631 160.674 82.0311L161.01 82.0071C161.37 81.9831 161.634 81.8751 161.802 81.6831C161.978 81.4911 162.066 81.1751 162.066 80.7351V75.1191C162.066 74.9671 162.11 74.8511 162.198 74.7711C162.294 74.6831 162.414 74.6391 162.558 74.6391C162.702 74.6391 162.818 74.6831 162.906 74.7711C162.994 74.8511 163.038 74.9671 163.038 75.1191V80.6751C163.038 81.3471 162.886 81.8511 162.582 82.1871C162.286 82.5231 161.822 82.7151 161.19 82.7631L160.854 82.7871ZM162.558 73.3791C162.366 73.3791 162.21 73.3231 162.09 73.2111C161.97 73.0991 161.91 72.9511 161.91 72.7671C161.91 72.5911 161.97 72.4471 162.09 72.3351C162.21 72.2231 162.366 72.1671 162.558 72.1671C162.75 72.1671 162.906 72.2231 163.026 72.3351C163.146 72.4471 163.206 72.5911 163.206 72.7671C163.206 72.9511 163.146 73.0991 163.026 73.2111C162.906 73.3231 162.75 73.3791 162.558 73.3791ZM169.379 79.2471C169.467 79.2471 169.543 79.2831 169.607 79.3551C169.671 79.4271 169.703 79.5191 169.703 79.6311C169.703 79.8311 169.563 80.0151 169.283 80.1831C168.995 80.3511 168.691 80.4791 168.371 80.5671C168.051 80.6471 167.739 80.6871 167.435 80.6871C166.531 80.6871 165.815 80.4191 165.287 79.8831C164.767 79.3471 164.507 78.6071 164.507 77.6631C164.507 77.0631 164.623 76.5351 164.855 76.0791C165.087 75.6151 165.411 75.2551 165.827 74.9991C166.251 74.7431 166.731 74.6151 167.267 74.6151C168.027 74.6151 168.631 74.8631 169.079 75.3591C169.527 75.8551 169.751 76.5271 169.751 77.3751C169.751 77.5351 169.719 77.6511 169.655 77.7231C169.591 77.7951 169.487 77.8311 169.343 77.8311H165.479C165.551 79.2071 166.203 79.8951 167.435 79.8951C167.747 79.8951 168.015 79.8551 168.239 79.7751C168.463 79.6871 168.703 79.5711 168.959 79.4271C169.167 79.3071 169.307 79.2471 169.379 79.2471ZM167.279 75.3711C166.767 75.3711 166.355 75.5311 166.043 75.8511C165.739 76.1711 165.559 76.6231 165.503 77.2071H168.899C168.883 76.6151 168.735 76.1631 168.455 75.8511C168.175 75.5311 167.783 75.3711 167.279 75.3711ZM173.596 80.6871C173.052 80.6871 172.568 80.5631 172.144 80.3151C171.728 80.0671 171.404 79.7151 171.172 79.2591C170.948 78.8031 170.836 78.2751 170.836 77.6751C170.836 77.0751 170.952 76.5431 171.184 76.0791C171.424 75.6151 171.756 75.2551 172.18 74.9991C172.604 74.7431 173.092 74.6151 173.644 74.6151C173.948 74.6151 174.248 74.6591 174.544 74.7471C174.848 74.8271 175.112 74.9471 175.336 75.1071C175.48 75.2031 175.58 75.2991 175.636 75.3951C175.7 75.4831 175.732 75.5831 175.732 75.6951C175.732 75.8071 175.7 75.8991 175.636 75.9711C175.58 76.0431 175.504 76.0791 175.408 76.0791C175.352 76.0791 175.292 76.0631 175.228 76.0311C175.164 75.9991 175.108 75.9671 175.06 75.9351C175.02 75.9031 174.992 75.8831 174.976 75.8751C174.768 75.7391 174.568 75.6311 174.376 75.5511C174.192 75.4711 173.964 75.4311 173.692 75.4311C173.108 75.4311 172.652 75.6311 172.324 76.0311C172.004 76.4231 171.844 76.9711 171.844 77.6751C171.844 78.3791 172.004 78.9231 172.324 79.3071C172.652 79.6911 173.108 79.8831 173.692 79.8831C173.964 79.8831 174.196 79.8431 174.388 79.7631C174.588 79.6831 174.788 79.5751 174.988 79.4391C175.076 79.3831 175.16 79.3351 175.24 79.2951C175.32 79.2551 175.388 79.2351 175.444 79.2351C175.532 79.2351 175.604 79.2711 175.66 79.3431C175.724 79.4151 175.756 79.5071 175.756 79.6191C175.756 79.7231 175.728 79.8191 175.672 79.9071C175.616 79.9871 175.512 80.0791 175.36 80.1831C175.136 80.3351 174.864 80.4591 174.544 80.5551C174.232 80.6431 173.916 80.6871 173.596 80.6871ZM179.637 79.8951C179.917 79.9191 180.057 80.0471 180.057 80.2791C180.057 80.4151 180.005 80.5191 179.901 80.5911C179.805 80.6551 179.657 80.6791 179.457 80.6631L179.133 80.6391C178.493 80.5911 178.021 80.3991 177.717 80.0631C177.413 79.7271 177.261 79.2191 177.261 78.5391V75.5271H176.457C176.321 75.5271 176.213 75.4951 176.133 75.4311C176.061 75.3591 176.025 75.2671 176.025 75.1551C176.025 75.0351 176.061 74.9391 176.133 74.8671C176.213 74.7951 176.321 74.7591 176.457 74.7591H177.261V73.4031C177.261 73.2511 177.305 73.1351 177.393 73.0551C177.481 72.9671 177.601 72.9231 177.753 72.9231C177.897 72.9231 178.013 72.9671 178.101 73.0551C178.189 73.1351 178.233 73.2511 178.233 73.4031V74.7591H179.565C179.693 74.7591 179.793 74.7951 179.865 74.8671C179.945 74.9391 179.985 75.0351 179.985 75.1551C179.985 75.2671 179.945 75.3591 179.865 75.4311C179.793 75.4951 179.693 75.5271 179.565 75.5271H178.233V78.5871C178.233 79.0271 178.321 79.3471 178.497 79.5471C178.681 79.7391 178.953 79.8471 179.313 79.8711L179.637 79.8951ZM188.672 72.0831C188.824 72.0831 188.94 72.1311 189.02 72.2271C189.108 72.3151 189.152 72.4351 189.152 72.5871V80.1831C189.152 80.3271 189.112 80.4431 189.032 80.5311C188.952 80.6191 188.84 80.6631 188.696 80.6631C188.552 80.6631 188.444 80.6191 188.372 80.5311C188.3 80.4431 188.264 80.3271 188.264 80.1831V74.0511L185.66 79.0431C185.548 79.2751 185.384 79.3911 185.168 79.3911C184.96 79.3911 184.796 79.2751 184.676 79.0431L182.06 74.1111V80.1831C182.06 80.3271 182.02 80.4431 181.94 80.5311C181.868 80.6191 181.76 80.6631 181.616 80.6631C181.472 80.6631 181.36 80.6191 181.28 80.5311C181.2 80.4431 181.16 80.3271 181.16 80.1831V72.5871C181.16 72.4351 181.204 72.3151 181.292 72.2271C181.38 72.1311 181.5 72.0831 181.652 72.0831C181.852 72.0831 182.012 72.1991 182.132 72.4311L185.18 78.2751L188.192 72.4311C188.256 72.3031 188.324 72.2151 188.396 72.1671C188.476 72.1111 188.568 72.0831 188.672 72.0831ZM193.493 74.6151C194.957 74.6151 195.689 75.3831 195.689 76.9191V80.1831C195.689 80.3271 195.645 80.4431 195.557 80.5311C195.477 80.6191 195.365 80.6631 195.221 80.6631C195.077 80.6631 194.961 80.6191 194.873 80.5311C194.785 80.4431 194.741 80.3271 194.741 80.1831V79.6071C194.589 79.9511 194.357 80.2191 194.045 80.4111C193.733 80.5951 193.373 80.6871 192.965 80.6871C192.589 80.6871 192.241 80.6111 191.921 80.4591C191.609 80.3071 191.361 80.0951 191.177 79.8231C190.993 79.5511 190.901 79.2511 190.901 78.9231C190.901 78.4831 191.013 78.1431 191.237 77.9031C191.461 77.6551 191.829 77.4791 192.341 77.3751C192.853 77.2631 193.565 77.2071 194.477 77.2071H194.741V76.8111C194.741 76.3311 194.641 75.9791 194.441 75.7551C194.249 75.5311 193.933 75.4191 193.493 75.4191C192.949 75.4191 192.397 75.5671 191.837 75.8631C191.621 75.9991 191.469 76.0671 191.381 76.0671C191.285 76.0671 191.205 76.0311 191.141 75.9591C191.077 75.8871 191.045 75.7951 191.045 75.6831C191.045 75.5711 191.077 75.4751 191.141 75.3951C191.213 75.3071 191.325 75.2191 191.477 75.1311C191.757 74.9711 192.073 74.8471 192.425 74.7591C192.785 74.6631 193.141 74.6151 193.493 74.6151ZM193.097 79.9191C193.577 79.9191 193.969 79.7591 194.273 79.4391C194.585 79.1111 194.741 78.6911 194.741 78.1791V77.8311H194.525C193.821 77.8311 193.285 77.8631 192.917 77.9271C192.549 77.9831 192.285 78.0831 192.125 78.2271C191.973 78.3631 191.897 78.5671 191.897 78.8391C191.897 79.1511 192.009 79.4111 192.233 79.6191C192.465 79.8191 192.753 79.9191 193.097 79.9191ZM200.409 74.6151C201.809 74.6151 202.509 75.3871 202.509 76.9311V80.1831C202.509 80.3351 202.465 80.4551 202.377 80.5431C202.297 80.6231 202.181 80.6631 202.029 80.6631C201.877 80.6631 201.757 80.6231 201.669 80.5431C201.581 80.4551 201.537 80.3351 201.537 80.1831V76.9911C201.537 76.4471 201.429 76.0511 201.213 75.8031C201.005 75.5551 200.669 75.4311 200.205 75.4311C199.669 75.4311 199.241 75.5951 198.921 75.9231C198.601 76.2511 198.441 76.6951 198.441 77.2551V80.1831C198.441 80.3351 198.397 80.4551 198.309 80.5431C198.229 80.6231 198.113 80.6631 197.961 80.6631C197.809 80.6631 197.689 80.6231 197.601 80.5431C197.513 80.4551 197.469 80.3351 197.469 80.1831V75.1191C197.469 74.9751 197.513 74.8591 197.601 74.7711C197.689 74.6831 197.809 74.6391 197.961 74.6391C198.105 74.6391 198.217 74.6831 198.297 74.7711C198.385 74.8591 198.429 74.9711 198.429 75.1071V75.7191C198.621 75.3591 198.889 75.0871 199.233 74.9031C199.577 74.7111 199.969 74.6151 200.409 74.6151ZM206.677 74.6151C208.141 74.6151 208.873 75.3831 208.873 76.9191V80.1831C208.873 80.3271 208.829 80.4431 208.741 80.5311C208.661 80.6191 208.549 80.6631 208.405 80.6631C208.261 80.6631 208.145 80.6191 208.057 80.5311C207.969 80.4431 207.925 80.3271 207.925 80.1831V79.6071C207.773 79.9511 207.541 80.2191 207.229 80.4111C206.917 80.5951 206.557 80.6871 206.149 80.6871C205.773 80.6871 205.425 80.6111 205.105 80.4591C204.793 80.3071 204.545 80.0951 204.361 79.8231C204.177 79.5511 204.085 79.2511 204.085 78.9231C204.085 78.4831 204.197 78.1431 204.421 77.9031C204.645 77.6551 205.013 77.4791 205.525 77.3751C206.037 77.2631 206.749 77.2071 207.661 77.2071H207.925V76.8111C207.925 76.3311 207.825 75.9791 207.625 75.7551C207.433 75.5311 207.117 75.4191 206.677 75.4191C206.133 75.4191 205.581 75.5671 205.021 75.8631C204.805 75.9991 204.653 76.0671 204.565 76.0671C204.469 76.0671 204.389 76.0311 204.325 75.9591C204.261 75.8871 204.229 75.7951 204.229 75.6831C204.229 75.5711 204.261 75.4751 204.325 75.3951C204.397 75.3071 204.509 75.2191 204.661 75.1311C204.941 74.9711 205.257 74.8471 205.609 74.7591C205.969 74.6631 206.325 74.6151 206.677 74.6151ZM206.281 79.9191C206.761 79.9191 207.153 79.7591 207.457 79.4391C207.769 79.1111 207.925 78.6911 207.925 78.1791V77.8311H207.709C207.005 77.8311 206.469 77.8631 206.101 77.9271C205.733 77.9831 205.469 78.0831 205.309 78.2271C205.157 78.3631 205.081 78.5671 205.081 78.8391C205.081 79.1511 205.193 79.4111 205.417 79.6191C205.649 79.8191 205.937 79.9191 206.281 79.9191ZM215.392 74.6391C215.544 74.6391 215.664 74.6831 215.752 74.7711C215.84 74.8591 215.884 74.9751 215.884 75.1191V80.2071C215.884 81.0791 215.66 81.7351 215.212 82.1751C214.764 82.6231 214.1 82.8471 213.22 82.8471C212.364 82.8471 211.652 82.6791 211.084 82.3431C210.796 82.1831 210.652 81.9991 210.652 81.7911C210.652 81.6791 210.68 81.5871 210.736 81.5151C210.8 81.4431 210.88 81.4071 210.976 81.4071C211.056 81.4071 211.2 81.4631 211.408 81.5751C211.688 81.7191 211.964 81.8351 212.236 81.9231C212.508 82.0111 212.832 82.0551 213.208 82.0551C213.776 82.0551 214.204 81.9031 214.492 81.5991C214.78 81.3031 214.924 80.8671 214.924 80.2911V79.2591C214.756 79.6351 214.496 79.9231 214.144 80.1231C213.8 80.3231 213.392 80.4231 212.92 80.4231C212.408 80.4231 211.952 80.3031 211.552 80.0631C211.16 79.8231 210.852 79.4831 210.628 79.0431C210.412 78.6031 210.304 78.0951 210.304 77.5191C210.304 76.9431 210.412 76.4351 210.628 75.9951C210.852 75.5551 211.16 75.2151 211.552 74.9751C211.952 74.7351 212.408 74.6151 212.92 74.6151C213.384 74.6151 213.788 74.7151 214.132 74.9151C214.476 75.1151 214.736 75.3991 214.912 75.7671V75.1191C214.912 74.9751 214.952 74.8591 215.032 74.7711C215.12 74.6831 215.24 74.6391 215.392 74.6391ZM213.112 79.6191C213.672 79.6191 214.112 79.4351 214.432 79.0671C214.752 78.6911 214.912 78.1751 214.912 77.5191C214.912 76.8711 214.752 76.3631 214.432 75.9951C214.12 75.6191 213.68 75.4311 213.112 75.4311C212.544 75.4311 212.096 75.6191 211.768 75.9951C211.448 76.3631 211.288 76.8711 211.288 77.5191C211.288 78.1751 211.448 78.6911 211.768 79.0671C212.096 79.4351 212.544 79.6191 213.112 79.6191ZM222.208 79.2471C222.296 79.2471 222.372 79.2831 222.436 79.3551C222.5 79.4271 222.532 79.5191 222.532 79.6311C222.532 79.8311 222.392 80.0151 222.112 80.1831C221.824 80.3511 221.52 80.4791 221.2 80.5671C220.88 80.6471 220.568 80.6871 220.264 80.6871C219.36 80.6871 218.644 80.4191 218.116 79.8831C217.596 79.3471 217.336 78.6071 217.336 77.6631C217.336 77.0631 217.452 76.5351 217.684 76.0791C217.916 75.6151 218.24 75.2551 218.656 74.9991C219.08 74.7431 219.56 74.6151 220.096 74.6151C220.856 74.6151 221.46 74.8631 221.908 75.3591C222.356 75.8551 222.58 76.5271 222.58 77.3751C222.58 77.5351 222.548 77.6511 222.484 77.7231C222.42 77.7951 222.316 77.8311 222.172 77.8311H218.308C218.38 79.2071 219.032 79.8951 220.264 79.8951C220.576 79.8951 220.844 79.8551 221.068 79.7751C221.292 79.6871 221.532 79.5711 221.788 79.4271C221.996 79.3071 222.136 79.2471 222.208 79.2471ZM220.108 75.3711C219.596 75.3711 219.184 75.5311 218.872 75.8511C218.568 76.1711 218.388 76.6231 218.332 77.2071H221.728C221.712 76.6151 221.564 76.1631 221.284 75.8511C221.004 75.5311 220.612 75.3711 220.108 75.3711ZM226.904 74.6391C227.24 74.6151 227.408 74.7511 227.408 75.0471C227.408 75.1751 227.372 75.2791 227.3 75.3591C227.228 75.4311 227.104 75.4751 226.928 75.4911L226.568 75.5271C226.032 75.5751 225.632 75.7671 225.368 76.1031C225.112 76.4311 224.984 76.8191 224.984 77.2671V80.1831C224.984 80.3431 224.94 80.4631 224.852 80.5431C224.764 80.6231 224.648 80.6631 224.504 80.6631C224.36 80.6631 224.24 80.6231 224.144 80.5431C224.056 80.4551 224.012 80.3351 224.012 80.1831V75.1191C224.012 74.9671 224.06 74.8511 224.156 74.7711C224.252 74.6831 224.368 74.6391 224.504 74.6391C224.632 74.6391 224.74 74.6831 224.828 74.7711C224.916 74.8511 224.96 74.9631 224.96 75.1071V75.7791C225.128 75.4271 225.364 75.1591 225.668 74.9751C225.98 74.7911 226.336 74.6831 226.736 74.6511L226.904 74.6391Z" fill="#303030"/>
<path d="M298.359 58.6602C298.479 58.6602 298.575 58.6962 298.647 58.7682C298.727 58.8402 298.767 58.9402 298.767 59.0682V62.0562C298.767 62.2482 298.735 62.3922 298.671 62.4882C298.615 62.5842 298.507 62.6602 298.347 62.7162C298.027 62.8522 297.639 62.9602 297.183 63.0402C296.727 63.1202 296.271 63.1602 295.815 63.1602C294.975 63.1602 294.251 62.9882 293.643 62.6442C293.035 62.3002 292.567 61.8042 292.239 61.1562C291.919 60.5082 291.759 59.7322 291.759 58.8282C291.759 57.9402 291.919 57.1722 292.239 56.5242C292.559 55.8762 293.019 55.3802 293.619 55.0362C294.219 54.6842 294.923 54.5082 295.731 54.5082C296.291 54.5082 296.811 54.5962 297.291 54.7722C297.771 54.9402 298.175 55.1842 298.503 55.5042C298.639 55.6402 298.707 55.7802 298.707 55.9242C298.707 56.0362 298.675 56.1362 298.611 56.2242C298.547 56.3042 298.467 56.3442 298.371 56.3442C298.275 56.3442 298.163 56.2962 298.035 56.2002C297.619 55.8802 297.243 55.6602 296.907 55.5402C296.571 55.4122 296.183 55.3482 295.743 55.3482C294.791 55.3482 294.059 55.6482 293.547 56.2482C293.043 56.8482 292.791 57.7082 292.791 58.8282C292.791 59.9722 293.047 60.8442 293.559 61.4442C294.079 62.0362 294.839 62.3322 295.839 62.3322C296.583 62.3322 297.259 62.2202 297.867 61.9962V59.4282H296.115C295.979 59.4282 295.871 59.3922 295.791 59.3202C295.711 59.2482 295.671 59.1562 295.671 59.0442C295.671 58.9242 295.711 58.8322 295.791 58.7682C295.871 58.6962 295.979 58.6602 296.115 58.6602H298.359ZM305.134 61.7082C305.222 61.7082 305.298 61.7442 305.362 61.8162C305.426 61.8882 305.458 61.9802 305.458 62.0922C305.458 62.2922 305.318 62.4762 305.038 62.6442C304.75 62.8122 304.446 62.9402 304.126 63.0282C303.806 63.1082 303.494 63.1482 303.19 63.1482C302.286 63.1482 301.57 62.8802 301.042 62.3442C300.522 61.8082 300.262 61.0682 300.262 60.1242C300.262 59.5242 300.378 58.9962 300.61 58.5402C300.842 58.0762 301.166 57.7162 301.582 57.4602C302.006 57.2042 302.486 57.0762 303.022 57.0762C303.782 57.0762 304.386 57.3242 304.834 57.8202C305.282 58.3162 305.506 58.9882 305.506 59.8362C305.506 59.9962 305.474 60.1122 305.41 60.1842C305.346 60.2562 305.242 60.2922 305.098 60.2922H301.234C301.306 61.6682 301.958 62.3562 303.19 62.3562C303.502 62.3562 303.77 62.3162 303.994 62.2362C304.218 62.1482 304.458 62.0322 304.714 61.8882C304.922 61.7682 305.062 61.7082 305.134 61.7082ZM303.034 57.8322C302.522 57.8322 302.11 57.9922 301.798 58.3122C301.494 58.6322 301.314 59.0842 301.258 59.6682H304.654C304.638 59.0762 304.49 58.6242 304.21 58.3122C303.93 57.9922 303.538 57.8322 303.034 57.8322ZM309.878 57.0762C311.278 57.0762 311.978 57.8482 311.978 59.3922V62.6442C311.978 62.7962 311.934 62.9162 311.846 63.0042C311.766 63.0842 311.65 63.1242 311.498 63.1242C311.346 63.1242 311.226 63.0842 311.138 63.0042C311.05 62.9162 311.006 62.7962 311.006 62.6442V59.4522C311.006 58.9082 310.898 58.5122 310.682 58.2642C310.474 58.0162 310.138 57.8922 309.674 57.8922C309.138 57.8922 308.71 58.0562 308.39 58.3842C308.07 58.7122 307.91 59.1562 307.91 59.7162V62.6442C307.91 62.7962 307.866 62.9162 307.778 63.0042C307.698 63.0842 307.582 63.1242 307.43 63.1242C307.278 63.1242 307.158 63.0842 307.07 63.0042C306.982 62.9162 306.938 62.7962 306.938 62.6442V57.5802C306.938 57.4362 306.982 57.3202 307.07 57.2322C307.158 57.1442 307.278 57.1002 307.43 57.1002C307.574 57.1002 307.686 57.1442 307.766 57.2322C307.854 57.3202 307.898 57.4322 307.898 57.5682V58.1802C308.09 57.8202 308.358 57.5482 308.702 57.3642C309.046 57.1722 309.438 57.0762 309.878 57.0762ZM318.283 61.7082C318.371 61.7082 318.447 61.7442 318.511 61.8162C318.575 61.8882 318.607 61.9802 318.607 62.0922C318.607 62.2922 318.467 62.4762 318.187 62.6442C317.899 62.8122 317.595 62.9402 317.275 63.0282C316.955 63.1082 316.643 63.1482 316.339 63.1482C315.435 63.1482 314.719 62.8802 314.191 62.3442C313.671 61.8082 313.411 61.0682 313.411 60.1242C313.411 59.5242 313.527 58.9962 313.759 58.5402C313.991 58.0762 314.315 57.7162 314.731 57.4602C315.155 57.2042 315.635 57.0762 316.171 57.0762C316.931 57.0762 317.535 57.3242 317.983 57.8202C318.431 58.3162 318.655 58.9882 318.655 59.8362C318.655 59.9962 318.623 60.1122 318.559 60.1842C318.495 60.2562 318.391 60.2922 318.247 60.2922H314.383C314.455 61.6682 315.107 62.3562 316.339 62.3562C316.651 62.3562 316.919 62.3162 317.143 62.2362C317.367 62.1482 317.607 62.0322 317.863 61.8882C318.071 61.7682 318.211 61.7082 318.283 61.7082ZM316.183 57.8322C315.671 57.8322 315.259 57.9922 314.947 58.3122C314.643 58.6322 314.463 59.0842 314.407 59.6682H317.803C317.787 59.0762 317.639 58.6242 317.359 58.3122C317.079 57.9922 316.687 57.8322 316.183 57.8322ZM322.979 57.1002C323.315 57.0762 323.483 57.2122 323.483 57.5082C323.483 57.6362 323.447 57.7402 323.375 57.8202C323.303 57.8922 323.179 57.9362 323.003 57.9522L322.643 57.9882C322.107 58.0362 321.707 58.2282 321.443 58.5642C321.187 58.8922 321.059 59.2802 321.059 59.7282V62.6442C321.059 62.8042 321.015 62.9242 320.927 63.0042C320.839 63.0842 320.723 63.1242 320.579 63.1242C320.435 63.1242 320.315 63.0842 320.219 63.0042C320.131 62.9162 320.087 62.7962 320.087 62.6442V57.5802C320.087 57.4282 320.135 57.3122 320.231 57.2322C320.327 57.1442 320.443 57.1002 320.579 57.1002C320.707 57.1002 320.815 57.1442 320.903 57.2322C320.991 57.3122 321.035 57.4242 321.035 57.5682V58.2402C321.203 57.8882 321.439 57.6202 321.743 57.4362C322.055 57.2522 322.411 57.1442 322.811 57.1122L322.979 57.1002ZM326.658 57.0762C328.122 57.0762 328.854 57.8442 328.854 59.3802V62.6442C328.854 62.7882 328.81 62.9042 328.722 62.9922C328.642 63.0802 328.53 63.1242 328.386 63.1242C328.242 63.1242 328.126 63.0802 328.038 62.9922C327.95 62.9042 327.906 62.7882 327.906 62.6442V62.0682C327.754 62.4122 327.522 62.6802 327.21 62.8722C326.898 63.0562 326.538 63.1482 326.13 63.1482C325.754 63.1482 325.406 63.0722 325.086 62.9202C324.774 62.7682 324.526 62.5562 324.342 62.2842C324.158 62.0122 324.066 61.7122 324.066 61.3842C324.066 60.9442 324.178 60.6042 324.402 60.3642C324.626 60.1162 324.994 59.9402 325.506 59.8362C326.018 59.7242 326.73 59.6682 327.642 59.6682H327.906V59.2722C327.906 58.7922 327.806 58.4402 327.606 58.2162C327.414 57.9922 327.098 57.8802 326.658 57.8802C326.114 57.8802 325.562 58.0282 325.002 58.3242C324.786 58.4602 324.634 58.5282 324.546 58.5282C324.45 58.5282 324.37 58.4922 324.306 58.4202C324.242 58.3482 324.21 58.2562 324.21 58.1442C324.21 58.0322 324.242 57.9362 324.306 57.8562C324.378 57.7682 324.49 57.6802 324.642 57.5922C324.922 57.4322 325.238 57.3082 325.59 57.2202C325.95 57.1242 326.306 57.0762 326.658 57.0762ZM326.262 62.3802C326.742 62.3802 327.134 62.2202 327.438 61.9002C327.75 61.5722 327.906 61.1522 327.906 60.6402V60.2922H327.69C326.986 60.2922 326.45 60.3242 326.082 60.3882C325.714 60.4442 325.45 60.5442 325.29 60.6882C325.138 60.8242 325.062 61.0282 325.062 61.3002C325.062 61.6122 325.174 61.8722 325.398 62.0802C325.63 62.2802 325.918 62.3802 326.262 62.3802ZM333.334 62.3562C333.614 62.3802 333.754 62.5082 333.754 62.7402C333.754 62.8762 333.702 62.9802 333.598 63.0522C333.502 63.1162 333.354 63.1402 333.154 63.1242L332.83 63.1002C332.19 63.0522 331.718 62.8602 331.414 62.5242C331.11 62.1882 330.958 61.6802 330.958 61.0002V57.9882H330.154C330.018 57.9882 329.91 57.9562 329.83 57.8922C329.758 57.8202 329.722 57.7282 329.722 57.6162C329.722 57.4962 329.758 57.4002 329.83 57.3282C329.91 57.2562 330.018 57.2202 330.154 57.2202H330.958V55.8642C330.958 55.7122 331.002 55.5962 331.09 55.5162C331.178 55.4282 331.298 55.3842 331.45 55.3842C331.594 55.3842 331.71 55.4282 331.798 55.5162C331.886 55.5962 331.93 55.7122 331.93 55.8642V57.2202H333.262C333.39 57.2202 333.49 57.2562 333.562 57.3282C333.642 57.4002 333.682 57.4962 333.682 57.6162C333.682 57.7282 333.642 57.8202 333.562 57.8922C333.49 57.9562 333.39 57.9882 333.262 57.9882H331.93V61.0482C331.93 61.4882 332.018 61.8082 332.194 62.0082C332.378 62.2002 332.65 62.3082 333.01 62.3322L333.334 62.3562ZM337.136 63.1482C336.584 63.1482 336.096 63.0242 335.672 62.7762C335.256 62.5282 334.932 62.1762 334.7 61.7202C334.476 61.2562 334.364 60.7202 334.364 60.1122C334.364 59.5042 334.476 58.9722 334.7 58.5162C334.932 58.0522 335.256 57.6962 335.672 57.4482C336.096 57.2002 336.584 57.0762 337.136 57.0762C337.688 57.0762 338.176 57.2002 338.6 57.4482C339.024 57.6962 339.348 58.0522 339.572 58.5162C339.804 58.9722 339.92 59.5042 339.92 60.1122C339.92 60.7202 339.804 61.2562 339.572 61.7202C339.348 62.1762 339.024 62.5282 338.6 62.7762C338.176 63.0242 337.688 63.1482 337.136 63.1482ZM337.136 62.3442C337.712 62.3442 338.152 62.1562 338.456 61.7802C338.768 61.3962 338.924 60.8402 338.924 60.1122C338.924 59.4002 338.768 58.8522 338.456 58.4682C338.144 58.0762 337.704 57.8802 337.136 57.8802C336.568 57.8802 336.128 58.0762 335.816 58.4682C335.504 58.8522 335.348 59.4002 335.348 60.1122C335.348 60.8322 335.5 61.3842 335.804 61.7682C336.116 62.1522 336.56 62.3442 337.136 62.3442ZM344.26 57.1002C344.596 57.0762 344.764 57.2122 344.764 57.5082C344.764 57.6362 344.728 57.7402 344.656 57.8202C344.584 57.8922 344.46 57.9362 344.284 57.9522L343.924 57.9882C343.388 58.0362 342.988 58.2282 342.724 58.5642C342.468 58.8922 342.34 59.2802 342.34 59.7282V62.6442C342.34 62.8042 342.296 62.9242 342.208 63.0042C342.12 63.0842 342.004 63.1242 341.86 63.1242C341.716 63.1242 341.596 63.0842 341.5 63.0042C341.412 62.9162 341.368 62.7962 341.368 62.6442V57.5802C341.368 57.4282 341.416 57.3122 341.512 57.2322C341.608 57.1442 341.724 57.1002 341.86 57.1002C341.988 57.1002 342.096 57.1442 342.184 57.2322C342.272 57.3122 342.316 57.4242 342.316 57.5682V58.2402C342.484 57.8882 342.72 57.6202 343.024 57.4362C343.336 57.2522 343.692 57.1442 344.092 57.1122L344.26 57.1002Z" fill="#303030"/>
<path d="M298.527 109.109C298.583 109.197 298.611 109.289 298.611 109.385C298.611 109.505 298.563 109.605 298.467 109.685C298.379 109.757 298.275 109.793 298.155 109.793C297.971 109.793 297.827 109.713 297.723 109.553L296.115 107.009C295.907 106.681 295.691 106.457 295.467 106.337C295.243 106.209 294.939 106.145 294.555 106.145H293.043V109.277C293.043 109.429 292.999 109.553 292.911 109.649C292.823 109.737 292.707 109.781 292.563 109.781C292.411 109.781 292.291 109.737 292.203 109.649C292.115 109.553 292.071 109.429 292.071 109.277V101.741C292.071 101.597 292.115 101.481 292.203 101.393C292.299 101.305 292.423 101.261 292.575 101.261H295.551C296.471 101.261 297.171 101.465 297.651 101.873C298.139 102.281 298.383 102.881 298.383 103.673C298.383 104.345 298.187 104.885 297.795 105.293C297.411 105.701 296.859 105.949 296.139 106.037C296.339 106.101 296.519 106.205 296.679 106.349C296.839 106.493 296.999 106.693 297.159 106.949L298.527 109.109ZM295.467 105.329C296.123 105.329 296.611 105.193 296.931 104.921C297.259 104.649 297.423 104.237 297.423 103.685C297.423 103.141 297.263 102.737 296.943 102.473C296.623 102.209 296.131 102.077 295.467 102.077H293.043V105.329H295.467ZM304.677 108.365C304.765 108.365 304.841 108.401 304.905 108.473C304.969 108.545 305.001 108.637 305.001 108.749C305.001 108.949 304.861 109.133 304.581 109.301C304.293 109.469 303.989 109.597 303.669 109.685C303.349 109.765 303.037 109.805 302.733 109.805C301.829 109.805 301.113 109.537 300.585 109.001C300.065 108.465 299.805 107.725 299.805 106.781C299.805 106.181 299.921 105.653 300.153 105.197C300.385 104.733 300.709 104.373 301.125 104.117C301.549 103.861 302.029 103.733 302.565 103.733C303.325 103.733 303.929 103.981 304.377 104.477C304.825 104.973 305.049 105.645 305.049 106.493C305.049 106.653 305.017 106.769 304.953 106.841C304.889 106.913 304.785 106.949 304.641 106.949H300.777C300.849 108.325 301.501 109.013 302.733 109.013C303.045 109.013 303.313 108.973 303.537 108.893C303.761 108.805 304.001 108.689 304.257 108.545C304.465 108.425 304.605 108.365 304.677 108.365ZM302.577 104.489C302.065 104.489 301.653 104.649 301.341 104.969C301.037 105.289 300.857 105.741 300.801 106.325H304.197C304.181 105.733 304.033 105.281 303.753 104.969C303.473 104.649 303.081 104.489 302.577 104.489ZM309.421 103.733C310.821 103.733 311.521 104.505 311.521 106.049V109.301C311.521 109.453 311.477 109.573 311.389 109.661C311.309 109.741 311.193 109.781 311.041 109.781C310.889 109.781 310.769 109.741 310.681 109.661C310.593 109.573 310.549 109.453 310.549 109.301V106.109C310.549 105.565 310.441 105.169 310.225 104.921C310.017 104.673 309.681 104.549 309.217 104.549C308.681 104.549 308.253 104.713 307.933 105.041C307.613 105.369 307.453 105.813 307.453 106.373V109.301C307.453 109.453 307.409 109.573 307.321 109.661C307.241 109.741 307.125 109.781 306.973 109.781C306.821 109.781 306.701 109.741 306.613 109.661C306.525 109.573 306.481 109.453 306.481 109.301V104.237C306.481 104.093 306.525 103.977 306.613 103.889C306.701 103.801 306.821 103.757 306.973 103.757C307.117 103.757 307.229 103.801 307.309 103.889C307.397 103.977 307.441 104.089 307.441 104.225V104.837C307.633 104.477 307.901 104.205 308.245 104.021C308.589 103.829 308.981 103.733 309.421 103.733ZM317.994 101.201C318.146 101.201 318.266 101.245 318.354 101.333C318.442 101.421 318.486 101.533 318.486 101.669V109.301C318.486 109.445 318.442 109.561 318.354 109.649C318.266 109.737 318.146 109.781 317.994 109.781C317.842 109.781 317.722 109.737 317.634 109.649C317.554 109.561 317.514 109.445 317.514 109.301V108.653C317.338 109.021 317.078 109.305 316.734 109.505C316.398 109.705 316.002 109.805 315.546 109.805C315.034 109.805 314.582 109.677 314.19 109.421C313.798 109.165 313.494 108.809 313.278 108.353C313.062 107.889 312.954 107.353 312.954 106.745C312.954 106.145 313.062 105.617 313.278 105.161C313.494 104.705 313.798 104.353 314.19 104.105C314.582 103.857 315.034 103.733 315.546 103.733C316.002 103.733 316.398 103.833 316.734 104.033C317.078 104.233 317.338 104.517 317.514 104.885V101.669C317.514 101.525 317.554 101.413 317.634 101.333C317.722 101.245 317.842 101.201 317.994 101.201ZM315.738 109.001C316.306 109.001 316.742 108.809 317.046 108.425C317.358 108.033 317.514 107.481 317.514 106.769C317.514 106.057 317.358 105.509 317.046 105.125C316.742 104.741 316.306 104.549 315.738 104.549C315.17 104.549 314.726 104.741 314.406 105.125C314.094 105.509 313.938 106.049 313.938 106.745C313.938 107.457 314.094 108.013 314.406 108.413C314.726 108.805 315.17 109.001 315.738 109.001ZM324.81 108.365C324.898 108.365 324.974 108.401 325.038 108.473C325.102 108.545 325.134 108.637 325.134 108.749C325.134 108.949 324.994 109.133 324.714 109.301C324.426 109.469 324.122 109.597 323.802 109.685C323.482 109.765 323.17 109.805 322.866 109.805C321.962 109.805 321.246 109.537 320.718 109.001C320.198 108.465 319.938 107.725 319.938 106.781C319.938 106.181 320.054 105.653 320.286 105.197C320.518 104.733 320.842 104.373 321.258 104.117C321.682 103.861 322.162 103.733 322.698 103.733C323.458 103.733 324.062 103.981 324.51 104.477C324.958 104.973 325.182 105.645 325.182 106.493C325.182 106.653 325.15 106.769 325.086 106.841C325.022 106.913 324.918 106.949 324.774 106.949H320.91C320.982 108.325 321.634 109.013 322.866 109.013C323.178 109.013 323.446 108.973 323.67 108.893C323.894 108.805 324.134 108.689 324.39 108.545C324.598 108.425 324.738 108.365 324.81 108.365ZM322.71 104.489C322.198 104.489 321.786 104.649 321.474 104.969C321.17 105.289 320.99 105.741 320.934 106.325H324.33C324.314 105.733 324.166 105.281 323.886 104.969C323.606 104.649 323.214 104.489 322.71 104.489ZM329.506 103.757C329.842 103.733 330.01 103.869 330.01 104.165C330.01 104.293 329.974 104.397 329.902 104.477C329.83 104.549 329.706 104.593 329.53 104.609L329.17 104.645C328.634 104.693 328.234 104.885 327.97 105.221C327.714 105.549 327.586 105.937 327.586 106.385V109.301C327.586 109.461 327.542 109.581 327.454 109.661C327.366 109.741 327.25 109.781 327.106 109.781C326.962 109.781 326.842 109.741 326.746 109.661C326.658 109.573 326.614 109.453 326.614 109.301V104.237C326.614 104.085 326.662 103.969 326.758 103.889C326.854 103.801 326.97 103.757 327.106 103.757C327.234 103.757 327.342 103.801 327.43 103.889C327.518 103.969 327.562 104.081 327.562 104.225V104.897C327.73 104.545 327.966 104.277 328.27 104.093C328.582 103.909 328.938 103.801 329.338 103.769L329.506 103.757ZM335.251 108.365C335.339 108.365 335.415 108.401 335.479 108.473C335.543 108.545 335.575 108.637 335.575 108.749C335.575 108.949 335.435 109.133 335.155 109.301C334.867 109.469 334.563 109.597 334.243 109.685C333.923 109.765 333.611 109.805 333.307 109.805C332.403 109.805 331.687 109.537 331.159 109.001C330.639 108.465 330.379 107.725 330.379 106.781C330.379 106.181 330.495 105.653 330.727 105.197C330.959 104.733 331.283 104.373 331.699 104.117C332.123 103.861 332.603 103.733 333.139 103.733C333.899 103.733 334.503 103.981 334.951 104.477C335.399 104.973 335.623 105.645 335.623 106.493C335.623 106.653 335.591 106.769 335.527 106.841C335.463 106.913 335.359 106.949 335.215 106.949H331.351C331.423 108.325 332.075 109.013 333.307 109.013C333.619 109.013 333.887 108.973 334.111 108.893C334.335 108.805 334.575 108.689 334.831 108.545C335.039 108.425 335.179 108.365 335.251 108.365ZM333.151 104.489C332.639 104.489 332.227 104.649 331.915 104.969C331.611 105.289 331.431 105.741 331.375 106.325H334.771C334.755 105.733 334.607 105.281 334.327 104.969C334.047 104.649 333.655 104.489 333.151 104.489ZM339.948 103.757C340.284 103.733 340.452 103.869 340.452 104.165C340.452 104.293 340.416 104.397 340.344 104.477C340.272 104.549 340.148 104.593 339.972 104.609L339.612 104.645C339.076 104.693 338.676 104.885 338.412 105.221C338.156 105.549 338.028 105.937 338.028 106.385V109.301C338.028 109.461 337.984 109.581 337.896 109.661C337.808 109.741 337.692 109.781 337.548 109.781C337.404 109.781 337.284 109.741 337.188 109.661C337.1 109.573 337.056 109.453 337.056 109.301V104.237C337.056 104.085 337.104 103.969 337.2 103.889C337.296 103.801 337.412 103.757 337.548 103.757C337.676 103.757 337.784 103.801 337.872 103.889C337.96 103.969 338.004 104.081 338.004 104.225V104.897C338.172 104.545 338.408 104.277 338.712 104.093C339.024 103.909 339.38 103.801 339.78 103.769L339.948 103.757Z" fill="#303030"/>
<path d="M167.624 14.6847C168.112 14.8127 168.488 15.0527 168.752 15.4047C169.024 15.7567 169.16 16.1967 169.16 16.7247C169.16 17.4687 168.916 18.0407 168.428 18.4407C167.94 18.8327 167.248 19.0287 166.352 19.0287H163.328C163.176 19.0287 163.052 18.9847 162.956 18.8967C162.868 18.8087 162.824 18.6927 162.824 18.5487V11.0487C162.824 10.9047 162.868 10.7887 162.956 10.7007C163.052 10.6127 163.176 10.5687 163.328 10.5687H166.22C167.092 10.5687 167.768 10.7607 168.248 11.1447C168.728 11.5287 168.968 12.0727 168.968 12.7767C168.968 13.2327 168.848 13.6247 168.608 13.9527C168.376 14.2807 168.048 14.5247 167.624 14.6847ZM163.796 14.3247H166.076C166.708 14.3247 167.184 14.1967 167.504 13.9407C167.832 13.6847 167.996 13.3127 167.996 12.8247C167.996 11.8647 167.356 11.3847 166.076 11.3847H163.796V14.3247ZM166.256 18.2127C166.92 18.2127 167.408 18.0927 167.72 17.8527C168.04 17.6047 168.2 17.2207 168.2 16.7007C168.2 15.6607 167.552 15.1407 166.256 15.1407H163.796V18.2127H166.256ZM173.154 13.0407C174.618 13.0407 175.35 13.8087 175.35 15.3447V18.6087C175.35 18.7527 175.306 18.8687 175.218 18.9567C175.138 19.0447 175.026 19.0887 174.882 19.0887C174.738 19.0887 174.622 19.0447 174.534 18.9567C174.446 18.8687 174.402 18.7527 174.402 18.6087V18.0327C174.25 18.3767 174.018 18.6447 173.706 18.8367C173.394 19.0207 173.034 19.1127 172.626 19.1127C172.25 19.1127 171.902 19.0367 171.582 18.8847C171.27 18.7327 171.022 18.5207 170.838 18.2487C170.654 17.9767 170.562 17.6767 170.562 17.3487C170.562 16.9087 170.674 16.5687 170.898 16.3287C171.122 16.0807 171.49 15.9047 172.002 15.8007C172.514 15.6887 173.226 15.6327 174.138 15.6327H174.402V15.2367C174.402 14.7567 174.302 14.4047 174.102 14.1807C173.91 13.9567 173.594 13.8447 173.154 13.8447C172.61 13.8447 172.058 13.9927 171.498 14.2887C171.282 14.4247 171.13 14.4927 171.042 14.4927C170.946 14.4927 170.866 14.4567 170.802 14.3847C170.738 14.3127 170.706 14.2207 170.706 14.1087C170.706 13.9967 170.738 13.9007 170.802 13.8207C170.874 13.7327 170.986 13.6447 171.138 13.5567C171.418 13.3967 171.734 13.2727 172.086 13.1847C172.446 13.0887 172.802 13.0407 173.154 13.0407ZM172.758 18.3447C173.238 18.3447 173.63 18.1847 173.934 17.8647C174.246 17.5367 174.402 17.1167 174.402 16.6047V16.2567H174.186C173.482 16.2567 172.946 16.2887 172.578 16.3527C172.21 16.4087 171.946 16.5087 171.786 16.6527C171.634 16.7887 171.558 16.9927 171.558 17.2647C171.558 17.5767 171.67 17.8367 171.894 18.0447C172.126 18.2447 172.414 18.3447 172.758 18.3447ZM179.541 19.1127C178.997 19.1127 178.513 18.9887 178.089 18.7407C177.673 18.4927 177.349 18.1407 177.117 17.6847C176.893 17.2287 176.781 16.7007 176.781 16.1007C176.781 15.5007 176.897 14.9687 177.129 14.5047C177.369 14.0407 177.701 13.6807 178.125 13.4247C178.549 13.1687 179.037 13.0407 179.589 13.0407C179.893 13.0407 180.193 13.0847 180.489 13.1727C180.793 13.2527 181.057 13.3727 181.281 13.5327C181.425 13.6287 181.525 13.7247 181.581 13.8207C181.645 13.9087 181.677 14.0087 181.677 14.1207C181.677 14.2327 181.645 14.3247 181.581 14.3967C181.525 14.4687 181.449 14.5047 181.353 14.5047C181.297 14.5047 181.237 14.4887 181.173 14.4567C181.109 14.4247 181.053 14.3927 181.005 14.3607C180.965 14.3287 180.937 14.3087 180.921 14.3007C180.713 14.1647 180.513 14.0567 180.321 13.9767C180.137 13.8967 179.909 13.8567 179.637 13.8567C179.053 13.8567 178.597 14.0567 178.269 14.4567C177.949 14.8487 177.789 15.3967 177.789 16.1007C177.789 16.8047 177.949 17.3487 178.269 17.7327C178.597 18.1167 179.053 18.3087 179.637 18.3087C179.909 18.3087 180.141 18.2687 180.333 18.1887C180.533 18.1087 180.733 18.0007 180.933 17.8647C181.021 17.8087 181.105 17.7607 181.185 17.7207C181.265 17.6807 181.333 17.6607 181.389 17.6607C181.477 17.6607 181.549 17.6967 181.605 17.7687C181.669 17.8407 181.701 17.9327 181.701 18.0447C181.701 18.1487 181.673 18.2447 181.617 18.3327C181.561 18.4127 181.457 18.5047 181.305 18.6087C181.081 18.7607 180.809 18.8847 180.489 18.9807C180.177 19.0687 179.861 19.1127 179.541 19.1127ZM187.539 18.2607C187.667 18.3807 187.731 18.5087 187.731 18.6447C187.731 18.7647 187.687 18.8687 187.599 18.9567C187.519 19.0447 187.419 19.0887 187.299 19.0887C187.195 19.0887 187.087 19.0407 186.975 18.9447L183.843 16.2447V18.6087C183.843 18.7607 183.795 18.8807 183.699 18.9687C183.611 19.0487 183.499 19.0887 183.363 19.0887C183.219 19.0887 183.099 19.0487 183.003 18.9687C182.915 18.8807 182.871 18.7607 182.871 18.6087V10.9887C182.871 10.8367 182.915 10.7207 183.003 10.6407C183.099 10.5527 183.219 10.5087 183.363 10.5087C183.499 10.5087 183.611 10.5527 183.699 10.6407C183.795 10.7207 183.843 10.8367 183.843 10.9887V15.8607L186.711 13.2327C186.807 13.1367 186.915 13.0887 187.035 13.0887C187.155 13.0887 187.259 13.1327 187.347 13.2207C187.435 13.3087 187.479 13.4127 187.479 13.5327C187.479 13.6687 187.423 13.7887 187.311 13.8927L184.947 16.0047L187.539 18.2607ZM193.29 17.6727C193.378 17.6727 193.454 17.7087 193.518 17.7807C193.582 17.8527 193.614 17.9447 193.614 18.0567C193.614 18.2567 193.474 18.4407 193.194 18.6087C192.906 18.7767 192.602 18.9047 192.282 18.9927C191.962 19.0727 191.65 19.1127 191.346 19.1127C190.442 19.1127 189.726 18.8447 189.198 18.3087C188.678 17.7727 188.418 17.0327 188.418 16.0887C188.418 15.4887 188.534 14.9607 188.766 14.5047C188.998 14.0407 189.322 13.6807 189.738 13.4247C190.162 13.1687 190.642 13.0407 191.178 13.0407C191.938 13.0407 192.542 13.2887 192.99 13.7847C193.438 14.2807 193.662 14.9527 193.662 15.8007C193.662 15.9607 193.63 16.0767 193.566 16.1487C193.502 16.2207 193.398 16.2567 193.254 16.2567H189.39C189.462 17.6327 190.114 18.3207 191.346 18.3207C191.658 18.3207 191.926 18.2807 192.15 18.2007C192.374 18.1127 192.614 17.9967 192.87 17.8527C193.078 17.7327 193.218 17.6727 193.29 17.6727ZM191.19 13.7967C190.678 13.7967 190.266 13.9567 189.954 14.2767C189.65 14.5967 189.47 15.0487 189.414 15.6327H192.81C192.794 15.0407 192.646 14.5887 192.366 14.2767C192.086 13.9567 191.694 13.7967 191.19 13.7967ZM198.034 13.0407C199.434 13.0407 200.134 13.8127 200.134 15.3567V18.6087C200.134 18.7607 200.09 18.8807 200.002 18.9687C199.922 19.0487 199.806 19.0887 199.654 19.0887C199.502 19.0887 199.382 19.0487 199.294 18.9687C199.206 18.8807 199.162 18.7607 199.162 18.6087V15.4167C199.162 14.8727 199.054 14.4767 198.838 14.2287C198.63 13.9807 198.294 13.8567 197.83 13.8567C197.294 13.8567 196.866 14.0207 196.546 14.3487C196.226 14.6767 196.066 15.1207 196.066 15.6807V18.6087C196.066 18.7607 196.022 18.8807 195.934 18.9687C195.854 19.0487 195.738 19.0887 195.586 19.0887C195.434 19.0887 195.314 19.0487 195.226 18.9687C195.138 18.8807 195.094 18.7607 195.094 18.6087V13.5447C195.094 13.4007 195.138 13.2847 195.226 13.1967C195.314 13.1087 195.434 13.0647 195.586 13.0647C195.73 13.0647 195.842 13.1087 195.922 13.1967C196.01 13.2847 196.054 13.3967 196.054 13.5327V14.1447C196.246 13.7847 196.514 13.5127 196.858 13.3287C197.202 13.1367 197.594 13.0407 198.034 13.0407ZM206.606 10.5087C206.758 10.5087 206.878 10.5527 206.966 10.6407C207.054 10.7287 207.098 10.8407 207.098 10.9767V18.6087C207.098 18.7527 207.054 18.8687 206.966 18.9567C206.878 19.0447 206.758 19.0887 206.606 19.0887C206.454 19.0887 206.334 19.0447 206.246 18.9567C206.166 18.8687 206.126 18.7527 206.126 18.6087V17.9607C205.95 18.3287 205.69 18.6127 205.346 18.8127C205.01 19.0127 204.614 19.1127 204.158 19.1127C203.646 19.1127 203.194 18.9847 202.802 18.7287C202.41 18.4727 202.106 18.1167 201.89 17.6607C201.674 17.1967 201.566 16.6607 201.566 16.0527C201.566 15.4527 201.674 14.9247 201.89 14.4687C202.106 14.0127 202.41 13.6607 202.802 13.4127C203.194 13.1647 203.646 13.0407 204.158 13.0407C204.614 13.0407 205.01 13.1407 205.346 13.3407C205.69 13.5407 205.95 13.8247 206.126 14.1927V10.9767C206.126 10.8327 206.166 10.7207 206.246 10.6407C206.334 10.5527 206.454 10.5087 206.606 10.5087ZM204.35 18.3087C204.918 18.3087 205.354 18.1167 205.658 17.7327C205.97 17.3407 206.126 16.7887 206.126 16.0767C206.126 15.3647 205.97 14.8167 205.658 14.4327C205.354 14.0487 204.918 13.8567 204.35 13.8567C203.782 13.8567 203.338 14.0487 203.018 14.4327C202.706 14.8167 202.55 15.3567 202.55 16.0527C202.55 16.7647 202.706 17.3207 203.018 17.7207C203.338 18.1127 203.782 18.3087 204.35 18.3087Z" fill="#303030"/>
<path d="M37.7858 103.728C37.1858 103.728 36.6098 103.64 36.0578 103.464C35.5138 103.28 35.0778 103.036 34.7498 102.732C34.6298 102.62 34.5698 102.48 34.5698 102.312C34.5698 102.2 34.6018 102.104 34.6658 102.024C34.7298 101.936 34.8058 101.892 34.8938 101.892C34.9978 101.892 35.1098 101.936 35.2298 102.024C35.9738 102.6 36.8218 102.888 37.7738 102.888C38.4618 102.888 38.9898 102.756 39.3578 102.492C39.7258 102.228 39.9098 101.852 39.9098 101.364C39.9098 101.084 39.8218 100.86 39.6458 100.692C39.4698 100.516 39.2378 100.376 38.9498 100.272C38.6618 100.168 38.2738 100.06 37.7858 99.9478C37.1298 99.7958 36.5898 99.6358 36.1658 99.4678C35.7498 99.2998 35.4098 99.0598 35.1458 98.7478C34.8898 98.4358 34.7618 98.0278 34.7618 97.5238C34.7618 97.0438 34.8898 96.6198 35.1458 96.2518C35.4098 95.8758 35.7738 95.5878 36.2378 95.3878C36.7098 95.1798 37.2458 95.0758 37.8458 95.0758C38.4058 95.0758 38.9258 95.1638 39.4058 95.3398C39.8938 95.5078 40.3018 95.7518 40.6298 96.0718C40.7578 96.1998 40.8218 96.3398 40.8218 96.4918C40.8218 96.6038 40.7898 96.7038 40.7258 96.7918C40.6618 96.8718 40.5858 96.9118 40.4978 96.9118C40.4098 96.9118 40.2938 96.8678 40.1498 96.7798C39.7578 96.4598 39.3938 96.2358 39.0578 96.1078C38.7218 95.9798 38.3178 95.9158 37.8458 95.9158C37.1818 95.9158 36.6658 96.0558 36.2978 96.3358C35.9298 96.6078 35.7458 96.9918 35.7458 97.4878C35.7458 97.9118 35.9058 98.2318 36.2258 98.4478C36.5538 98.6558 37.0538 98.8398 37.7258 98.9998C38.4538 99.1758 39.0258 99.3398 39.4418 99.4918C39.8578 99.6358 40.2018 99.8558 40.4738 100.152C40.7538 100.448 40.8938 100.844 40.8938 101.34C40.8938 101.812 40.7618 102.228 40.4978 102.588C40.2418 102.948 39.8778 103.228 39.4058 103.428C38.9338 103.628 38.3938 103.728 37.7858 103.728ZM46.872 102.276C46.96 102.276 47.036 102.312 47.1 102.384C47.164 102.456 47.196 102.548 47.196 102.66C47.196 102.86 47.056 103.044 46.776 103.212C46.488 103.38 46.184 103.508 45.864 103.596C45.544 103.676 45.232 103.716 44.928 103.716C44.024 103.716 43.308 103.448 42.78 102.912C42.26 102.376 42 101.636 42 100.692C42 100.092 42.116 99.5638 42.348 99.1078C42.58 98.6438 42.904 98.2838 43.32 98.0278C43.744 97.7718 44.224 97.6438 44.76 97.6438C45.52 97.6438 46.124 97.8918 46.572 98.3878C47.02 98.8838 47.244 99.5558 47.244 100.404C47.244 100.564 47.212 100.68 47.148 100.752C47.084 100.824 46.98 100.86 46.836 100.86H42.972C43.044 102.236 43.696 102.924 44.928 102.924C45.24 102.924 45.508 102.884 45.732 102.804C45.956 102.716 46.196 102.6 46.452 102.456C46.66 102.336 46.8 102.276 46.872 102.276ZM44.772 98.3998C44.26 98.3998 43.848 98.5598 43.536 98.8798C43.232 99.1998 43.052 99.6518 42.996 100.236H46.392C46.376 99.6438 46.228 99.1918 45.948 98.8798C45.668 98.5598 45.276 98.3998 44.772 98.3998ZM51.341 102.924C51.621 102.948 51.761 103.076 51.761 103.308C51.761 103.444 51.709 103.548 51.605 103.62C51.509 103.684 51.361 103.708 51.161 103.692L50.837 103.668C50.197 103.62 49.725 103.428 49.421 103.092C49.117 102.756 48.965 102.248 48.965 101.568V98.5558H48.161C48.025 98.5558 47.917 98.5238 47.837 98.4598C47.765 98.3878 47.729 98.2958 47.729 98.1838C47.729 98.0638 47.765 97.9678 47.837 97.8958C47.917 97.8238 48.025 97.7878 48.161 97.7878H48.965V96.4318C48.965 96.2798 49.009 96.1638 49.097 96.0838C49.185 95.9958 49.305 95.9518 49.457 95.9518C49.601 95.9518 49.717 95.9958 49.805 96.0838C49.893 96.1638 49.937 96.2798 49.937 96.4318V97.7878H51.269C51.397 97.7878 51.497 97.8238 51.569 97.8958C51.649 97.9678 51.689 98.0638 51.689 98.1838C51.689 98.2958 51.649 98.3878 51.569 98.4598C51.497 98.5238 51.397 98.5558 51.269 98.5558H49.937V101.616C49.937 102.056 50.025 102.376 50.201 102.576C50.385 102.768 50.657 102.876 51.017 102.9L51.341 102.924ZM55.4543 102.924C55.7343 102.948 55.8743 103.076 55.8743 103.308C55.8743 103.444 55.8223 103.548 55.7183 103.62C55.6223 103.684 55.4743 103.708 55.2743 103.692L54.9503 103.668C54.3103 103.62 53.8383 103.428 53.5343 103.092C53.2303 102.756 53.0783 102.248 53.0783 101.568V98.5558H52.2743C52.1383 98.5558 52.0303 98.5238 51.9503 98.4598C51.8783 98.3878 51.8423 98.2958 51.8423 98.1838C51.8423 98.0638 51.8783 97.9678 51.9503 97.8958C52.0303 97.8238 52.1383 97.7878 52.2743 97.7878H53.0783V96.4318C53.0783 96.2798 53.1223 96.1638 53.2103 96.0838C53.2983 95.9958 53.4183 95.9518 53.5703 95.9518C53.7143 95.9518 53.8303 95.9958 53.9183 96.0838C54.0063 96.1638 54.0503 96.2798 54.0503 96.4318V97.7878H55.3823C55.5103 97.7878 55.6103 97.8238 55.6823 97.8958C55.7623 97.9678 55.8023 98.0638 55.8023 98.1838C55.8023 98.2958 55.7623 98.3878 55.6823 98.4598C55.6103 98.5238 55.5103 98.5558 55.3823 98.5558H54.0503V101.616C54.0503 102.056 54.1383 102.376 54.3143 102.576C54.4983 102.768 54.7703 102.876 55.1303 102.9L55.4543 102.924ZM57.3244 103.692C57.1804 103.692 57.0604 103.652 56.9644 103.572C56.8764 103.484 56.8324 103.364 56.8324 103.212V98.1478C56.8324 97.9958 56.8764 97.8798 56.9644 97.7998C57.0604 97.7118 57.1804 97.6678 57.3244 97.6678C57.4684 97.6678 57.5844 97.7118 57.6724 97.7998C57.7604 97.8798 57.8044 97.9958 57.8044 98.1478V103.212C57.8044 103.372 57.7604 103.492 57.6724 103.572C57.5844 103.652 57.4684 103.692 57.3244 103.692ZM57.3244 96.4078C57.1324 96.4078 56.9764 96.3518 56.8564 96.2398C56.7364 96.1278 56.6764 95.9798 56.6764 95.7958C56.6764 95.6198 56.7364 95.4758 56.8564 95.3638C56.9764 95.2518 57.1324 95.1958 57.3244 95.1958C57.5164 95.1958 57.6724 95.2518 57.7924 95.3638C57.9124 95.4758 57.9724 95.6198 57.9724 95.7958C57.9724 95.9798 57.9124 96.1278 57.7924 96.2398C57.6724 96.3518 57.5164 96.4078 57.3244 96.4078ZM62.5615 97.6438C63.9615 97.6438 64.6615 98.4158 64.6615 99.9598V103.212C64.6615 103.364 64.6175 103.484 64.5295 103.572C64.4495 103.652 64.3335 103.692 64.1815 103.692C64.0295 103.692 63.9095 103.652 63.8215 103.572C63.7335 103.484 63.6895 103.364 63.6895 103.212V100.02C63.6895 99.4758 63.5815 99.0798 63.3655 98.8318C63.1575 98.5838 62.8215 98.4598 62.3575 98.4598C61.8215 98.4598 61.3935 98.6238 61.0735 98.9518C60.7535 99.2798 60.5935 99.7238 60.5935 100.284V103.212C60.5935 103.364 60.5495 103.484 60.4615 103.572C60.3815 103.652 60.2655 103.692 60.1135 103.692C59.9615 103.692 59.8415 103.652 59.7535 103.572C59.6655 103.484 59.6215 103.364 59.6215 103.212V98.1478C59.6215 98.0038 59.6655 97.8878 59.7535 97.7998C59.8415 97.7118 59.9615 97.6678 60.1135 97.6678C60.2575 97.6678 60.3695 97.7118 60.4495 97.7998C60.5375 97.8878 60.5815 97.9998 60.5815 98.1358V98.7478C60.7735 98.3878 61.0415 98.1158 61.3855 97.9318C61.7295 97.7398 62.1215 97.6438 62.5615 97.6438ZM71.1818 97.6678C71.3338 97.6678 71.4538 97.7118 71.5418 97.7998C71.6298 97.8878 71.6738 98.0038 71.6738 98.1478V103.236C71.6738 104.108 71.4498 104.764 71.0018 105.204C70.5538 105.652 69.8898 105.876 69.0098 105.876C68.1538 105.876 67.4418 105.708 66.8738 105.372C66.5858 105.212 66.4418 105.028 66.4418 104.82C66.4418 104.708 66.4698 104.616 66.5258 104.544C66.5898 104.472 66.6698 104.436 66.7658 104.436C66.8458 104.436 66.9898 104.492 67.1978 104.604C67.4778 104.748 67.7538 104.864 68.0258 104.952C68.2978 105.04 68.6218 105.084 68.9978 105.084C69.5658 105.084 69.9938 104.932 70.2818 104.628C70.5698 104.332 70.7138 103.896 70.7138 103.32V102.288C70.5458 102.664 70.2858 102.952 69.9338 103.152C69.5898 103.352 69.1818 103.452 68.7098 103.452C68.1978 103.452 67.7418 103.332 67.3418 103.092C66.9498 102.852 66.6418 102.512 66.4178 102.072C66.2018 101.632 66.0938 101.124 66.0938 100.548C66.0938 99.9718 66.2018 99.4638 66.4178 99.0238C66.6418 98.5838 66.9498 98.2438 67.3418 98.0038C67.7418 97.7638 68.1978 97.6438 68.7098 97.6438C69.1738 97.6438 69.5778 97.7438 69.9218 97.9438C70.2658 98.1438 70.5258 98.4278 70.7018 98.7958V98.1478C70.7018 98.0038 70.7418 97.8878 70.8218 97.7998C70.9098 97.7118 71.0298 97.6678 71.1818 97.6678ZM68.9018 102.648C69.4618 102.648 69.9018 102.464 70.2218 102.096C70.5418 101.72 70.7018 101.204 70.7018 100.548C70.7018 99.8998 70.5418 99.3918 70.2218 99.0238C69.9098 98.6478 69.4698 98.4598 68.9018 98.4598C68.3338 98.4598 67.8858 98.6478 67.5578 99.0238C67.2378 99.3918 67.0778 99.8998 67.0778 100.548C67.0778 101.204 67.2378 101.72 67.5578 102.096C67.8858 102.464 68.3338 102.648 68.9018 102.648ZM75.441 103.716C75.073 103.716 74.721 103.672 74.385 103.584C74.057 103.496 73.765 103.372 73.509 103.212C73.365 103.116 73.261 103.028 73.197 102.948C73.141 102.86 73.113 102.756 73.113 102.636C73.113 102.532 73.141 102.448 73.197 102.384C73.261 102.312 73.341 102.276 73.437 102.276C73.533 102.276 73.673 102.336 73.857 102.456C74.097 102.6 74.333 102.716 74.565 102.804C74.805 102.884 75.101 102.924 75.453 102.924C75.885 102.924 76.221 102.848 76.461 102.696C76.701 102.544 76.821 102.324 76.821 102.036C76.821 101.86 76.777 101.72 76.689 101.616C76.601 101.504 76.449 101.408 76.233 101.328C76.017 101.24 75.701 101.152 75.285 101.064C74.581 100.912 74.077 100.708 73.773 100.452C73.469 100.196 73.317 99.8478 73.317 99.4078C73.317 99.0638 73.413 98.7598 73.605 98.4958C73.797 98.2318 74.061 98.0238 74.397 97.8718C74.741 97.7198 75.129 97.6438 75.561 97.6438C75.873 97.6438 76.173 97.6878 76.461 97.7758C76.757 97.8558 77.017 97.9718 77.241 98.1238C77.513 98.3158 77.649 98.5158 77.649 98.7238C77.649 98.8278 77.617 98.9158 77.553 98.9878C77.489 99.0598 77.413 99.0958 77.325 99.0958C77.229 99.0958 77.085 99.0278 76.893 98.8918C76.669 98.7478 76.457 98.6358 76.257 98.5558C76.057 98.4758 75.809 98.4358 75.513 98.4358C75.137 98.4358 74.833 98.5198 74.601 98.6878C74.377 98.8558 74.265 99.0798 74.265 99.3598C74.265 99.5358 74.305 99.6798 74.385 99.7918C74.473 99.8958 74.613 99.9918 74.805 100.08C75.005 100.16 75.289 100.24 75.657 100.32C76.201 100.44 76.621 100.572 76.917 100.716C77.221 100.86 77.437 101.036 77.565 101.244C77.693 101.452 77.757 101.716 77.757 102.036C77.757 102.54 77.545 102.948 77.121 103.26C76.697 103.564 76.137 103.716 75.441 103.716Z" fill="#303030"/>
<path d="M278.271 22.554C277.671 22.554 277.095 22.466 276.543 22.29C275.999 22.106 275.563 21.862 275.235 21.558C275.115 21.446 275.055 21.306 275.055 21.138C275.055 21.026 275.087 20.93 275.151 20.85C275.215 20.762 275.291 20.718 275.379 20.718C275.483 20.718 275.595 20.762 275.715 20.85C276.459 21.426 277.307 21.714 278.259 21.714C278.947 21.714 279.475 21.582 279.843 21.318C280.211 21.054 280.395 20.678 280.395 20.19C280.395 19.91 280.307 19.686 280.131 19.518C279.955 19.342 279.723 19.202 279.435 19.098C279.147 18.994 278.759 18.886 278.271 18.774C277.615 18.622 277.075 18.462 276.651 18.294C276.235 18.126 275.895 17.886 275.631 17.574C275.375 17.262 275.247 16.854 275.247 16.35C275.247 15.87 275.375 15.446 275.631 15.078C275.895 14.702 276.259 14.414 276.723 14.214C277.195 14.006 277.731 13.902 278.331 13.902C278.891 13.902 279.411 13.99 279.891 14.166C280.379 14.334 280.787 14.578 281.115 14.898C281.243 15.026 281.307 15.166 281.307 15.318C281.307 15.43 281.275 15.53 281.211 15.618C281.147 15.698 281.071 15.738 280.983 15.738C280.895 15.738 280.779 15.694 280.635 15.606C280.243 15.286 279.879 15.062 279.543 14.934C279.207 14.806 278.803 14.742 278.331 14.742C277.667 14.742 277.151 14.882 276.783 15.162C276.415 15.434 276.231 15.818 276.231 16.314C276.231 16.738 276.391 17.058 276.711 17.274C277.039 17.482 277.539 17.666 278.211 17.826C278.939 18.002 279.511 18.166 279.927 18.318C280.343 18.462 280.687 18.682 280.959 18.978C281.239 19.274 281.379 19.67 281.379 20.166C281.379 20.638 281.247 21.054 280.983 21.414C280.727 21.774 280.363 22.054 279.891 22.254C279.419 22.454 278.879 22.554 278.271 22.554ZM285.245 22.542C284.701 22.542 284.217 22.418 283.793 22.17C283.377 21.922 283.053 21.57 282.821 21.114C282.597 20.658 282.485 20.13 282.485 19.53C282.485 18.93 282.601 18.398 282.833 17.934C283.073 17.47 283.405 17.11 283.829 16.854C284.253 16.598 284.741 16.47 285.293 16.47C285.597 16.47 285.897 16.514 286.193 16.602C286.497 16.682 286.761 16.802 286.985 16.962C287.129 17.058 287.229 17.154 287.285 17.25C287.349 17.338 287.381 17.438 287.381 17.55C287.381 17.662 287.349 17.754 287.285 17.826C287.229 17.898 287.153 17.934 287.057 17.934C287.001 17.934 286.941 17.918 286.877 17.886C286.813 17.854 286.757 17.822 286.709 17.79C286.669 17.758 286.641 17.738 286.625 17.73C286.417 17.594 286.217 17.486 286.025 17.406C285.841 17.326 285.613 17.286 285.341 17.286C284.757 17.286 284.301 17.486 283.973 17.886C283.653 18.278 283.493 18.826 283.493 19.53C283.493 20.234 283.653 20.778 283.973 21.162C284.301 21.546 284.757 21.738 285.341 21.738C285.613 21.738 285.845 21.698 286.037 21.618C286.237 21.538 286.437 21.43 286.637 21.294C286.725 21.238 286.809 21.19 286.889 21.15C286.969 21.11 287.037 21.09 287.093 21.09C287.181 21.09 287.253 21.126 287.309 21.198C287.373 21.27 287.405 21.362 287.405 21.474C287.405 21.578 287.377 21.674 287.321 21.762C287.265 21.842 287.161 21.934 287.009 22.038C286.785 22.19 286.513 22.314 286.193 22.41C285.881 22.498 285.565 22.542 285.245 22.542ZM293.099 21.102C293.187 21.102 293.263 21.138 293.327 21.21C293.391 21.282 293.423 21.374 293.423 21.486C293.423 21.686 293.283 21.87 293.003 22.038C292.715 22.206 292.411 22.334 292.091 22.422C291.771 22.502 291.459 22.542 291.155 22.542C290.251 22.542 289.535 22.274 289.007 21.738C288.487 21.202 288.227 20.462 288.227 19.518C288.227 18.918 288.343 18.39 288.575 17.934C288.807 17.47 289.131 17.11 289.547 16.854C289.971 16.598 290.451 16.47 290.987 16.47C291.747 16.47 292.351 16.718 292.799 17.214C293.247 17.71 293.471 18.382 293.471 19.23C293.471 19.39 293.439 19.506 293.375 19.578C293.311 19.65 293.207 19.686 293.063 19.686H289.199C289.271 21.062 289.923 21.75 291.155 21.75C291.467 21.75 291.735 21.71 291.959 21.63C292.183 21.542 292.423 21.426 292.679 21.282C292.887 21.162 293.027 21.102 293.099 21.102ZM290.999 17.226C290.487 17.226 290.075 17.386 289.763 17.706C289.459 18.026 289.279 18.478 289.223 19.062H292.619C292.603 18.47 292.455 18.018 292.175 17.706C291.895 17.386 291.503 17.226 290.999 17.226ZM297.843 16.47C299.243 16.47 299.943 17.242 299.943 18.786V22.038C299.943 22.19 299.899 22.31 299.811 22.398C299.731 22.478 299.615 22.518 299.463 22.518C299.311 22.518 299.191 22.478 299.103 22.398C299.015 22.31 298.971 22.19 298.971 22.038V18.846C298.971 18.302 298.863 17.906 298.647 17.658C298.439 17.41 298.103 17.286 297.639 17.286C297.103 17.286 296.675 17.45 296.355 17.778C296.035 18.106 295.875 18.55 295.875 19.11V22.038C295.875 22.19 295.831 22.31 295.743 22.398C295.663 22.478 295.547 22.518 295.395 22.518C295.243 22.518 295.123 22.478 295.035 22.398C294.947 22.31 294.903 22.19 294.903 22.038V16.974C294.903 16.83 294.947 16.714 295.035 16.626C295.123 16.538 295.243 16.494 295.395 16.494C295.539 16.494 295.651 16.538 295.731 16.626C295.819 16.714 295.863 16.826 295.863 16.962V17.574C296.055 17.214 296.323 16.942 296.667 16.758C297.011 16.566 297.403 16.47 297.843 16.47ZM306.247 21.102C306.335 21.102 306.411 21.138 306.475 21.21C306.539 21.282 306.571 21.374 306.571 21.486C306.571 21.686 306.431 21.87 306.151 22.038C305.863 22.206 305.559 22.334 305.239 22.422C304.919 22.502 304.607 22.542 304.303 22.542C303.399 22.542 302.683 22.274 302.155 21.738C301.635 21.202 301.375 20.462 301.375 19.518C301.375 18.918 301.491 18.39 301.723 17.934C301.955 17.47 302.279 17.11 302.695 16.854C303.119 16.598 303.599 16.47 304.135 16.47C304.895 16.47 305.499 16.718 305.947 17.214C306.395 17.71 306.619 18.382 306.619 19.23C306.619 19.39 306.587 19.506 306.523 19.578C306.459 19.65 306.355 19.686 306.211 19.686H302.347C302.419 21.062 303.071 21.75 304.303 21.75C304.615 21.75 304.883 21.71 305.107 21.63C305.331 21.542 305.571 21.426 305.827 21.282C306.035 21.162 306.175 21.102 306.247 21.102ZM304.147 17.226C303.635 17.226 303.223 17.386 302.911 17.706C302.607 18.026 302.427 18.478 302.371 19.062H305.767C305.751 18.47 305.603 18.018 305.323 17.706C305.043 17.386 304.651 17.226 304.147 17.226Z" fill="#65E2A0"/>
<path d="M123.169 71.1524C123.364 70.9571 123.364 70.6405 123.169 70.4453L119.987 67.2633C119.792 67.068 119.475 67.068 119.28 67.2633C119.085 67.4586 119.085 67.7751 119.28 67.9704L122.108 70.7988L119.28 73.6273C119.085 73.8225 119.085 74.1391 119.28 74.3344C119.475 74.5296 119.792 74.5296 119.987 74.3344L123.169 71.1524ZM89.6741 53.4754C93.2248 53.4754 95.4561 54.5448 97.2128 56.1314C99.015 57.759 100.306 59.9038 102.015 62.1868C103.704 64.4417 105.743 66.7348 108.962 68.4549C112.179 70.1739 116.53 71.2988 122.815 71.2988V70.2988C116.65 70.2988 112.47 69.1958 109.433 67.5729C106.399 65.9512 104.464 63.7884 102.816 61.5874C101.189 59.4145 99.7813 57.1035 97.8831 55.3892C95.9394 53.6339 93.4682 52.4754 89.6741 52.4754V53.4754Z" fill="#65E2A0"/>
<path d="M123.169 80.2496C123.364 80.4448 123.364 80.7614 123.169 80.9567L119.987 84.1386C119.792 84.3339 119.475 84.3339 119.28 84.1386C119.085 83.9434 119.085 83.6268 119.28 83.4315L122.108 80.6031L119.28 77.7747C119.085 77.5794 119.085 77.2628 119.28 77.0676C119.475 76.8723 119.792 76.8723 119.987 77.0676L123.169 80.2496ZM89.6741 99.5326C93.2116 99.5326 95.4379 98.3725 97.1972 96.6405C99.0018 94.8638 100.297 92.5194 102.003 90.0348C103.689 87.5807 105.727 85.0825 108.946 83.2069C112.166 81.3309 116.524 80.1031 122.815 80.1031V81.1031C116.656 81.1031 112.483 82.304 109.449 84.071C106.416 85.8385 104.479 88.1976 102.828 90.601C101.198 92.9737 99.7945 95.4867 97.8987 97.3531C95.9577 99.2641 93.4815 100.533 89.6741 100.533V99.5326Z" fill="#65E2A0"/>
<path d="M268.519 44.9787C268.714 45.1739 268.714 45.4905 268.519 45.6858L265.337 48.8677C265.142 49.063 264.825 49.063 264.63 48.8677C264.435 48.6725 264.435 48.3559 264.63 48.1606L267.458 45.3322L264.63 42.5038C264.435 42.3085 264.435 41.9919 264.63 41.7967C264.825 41.6014 265.142 41.6014 265.337 41.7967L268.519 44.9787ZM237.664 75.5041C240.796 75.5041 242.825 73.7531 244.48 70.9569C246.157 68.1255 247.371 64.3666 248.926 60.4823C250.466 56.6387 252.325 52.7228 255.279 49.771C258.253 46.7991 262.307 44.8322 268.165 44.8322V45.8322C262.565 45.8322 258.767 47.6993 255.986 50.4784C253.185 53.2775 251.386 57.0297 249.855 60.854C248.339 64.6377 247.07 68.5467 245.341 71.4664C243.591 74.4212 241.291 76.5041 237.664 76.5041V75.5041Z" fill="#65E2A0"/>
<path d="M317.673 85.6668C317.868 85.8621 318.185 85.8621 318.38 85.6668L321.562 82.4848C321.757 82.2896 321.757 81.973 321.562 81.7777C321.367 81.5824 321.05 81.5824 320.855 81.7777L318.027 84.6061L315.198 81.7777C315.003 81.5824 314.686 81.5824 314.491 81.7777C314.296 81.973 314.296 82.2896 314.491 82.4848L317.673 85.6668ZM317.527 74.0929C317.527 76.5796 317.527 77.2771 317.527 78.4067C317.527 79.5363 317.527 81.098 317.527 85.3132L318.527 85.3132C318.527 81.098 318.527 79.5363 318.527 78.4067C318.527 77.2771 318.527 76.5796 318.527 74.0929L317.527 74.0929Z" fill="#65E2A0"/>
<path d="M317.673 39.01C317.868 39.2053 318.185 39.2053 318.38 39.01L321.562 35.828C321.757 35.6328 321.757 35.3162 321.562 35.1209C321.367 34.9257 321.05 34.9257 320.855 35.1209L318.027 37.9494L315.198 35.1209C315.003 34.9257 314.686 34.9257 314.491 35.1209C314.296 35.3162 314.296 35.6328 314.491 35.828L317.673 39.01ZM317.527 27.4361C317.527 29.9228 317.527 30.6203 317.527 31.7499C317.527 32.8795 317.527 34.4413 317.527 38.6565L318.527 38.6565C318.527 34.4413 318.527 32.8795 318.527 31.7499C318.527 30.6203 318.527 29.9228 318.527 27.4361L317.527 27.4361Z" fill="#65E2A0"/>
<path d="M185.536 38.3029C185.34 38.1076 185.024 38.1076 184.828 38.3029L181.647 41.4849C181.451 41.6801 181.451 41.9967 181.647 42.192C181.842 42.3873 182.158 42.3873 182.354 42.192L185.182 39.3636L188.01 42.192C188.206 42.3873 188.522 42.3873 188.718 42.192C188.913 41.9967 188.913 41.6801 188.718 41.4849L185.536 38.3029ZM185.682 52.9754C185.682 49.802 185.682 48.9119 185.682 47.4704C185.682 46.0288 185.682 44.0357 185.682 38.6565L184.682 38.6565C184.682 44.0357 184.682 46.0288 184.682 47.4703C184.682 48.9119 184.682 49.802 184.682 52.9754L185.682 52.9754Z" fill="#65E2A0"/>
</g>
<defs>
<filter id="filter0_d" x="-8" y="31.9467" width="105.674" height="46.0575" filterUnits="userSpaceOnUse" color-interpolation-filters="sRGB">
<feFlood flood-opacity="0" result="BackgroundImageFix"/>
<feColorMatrix in="SourceAlpha" type="matrix" values="0 0 0 0 0 0 0 0 0 0 0 0 0 0 0 0 0 0 127 0" result="hardAlpha"/>
<feOffset dy="2"/>
<feGaussianBlur stdDeviation="4"/>
<feComposite in2="hardAlpha" operator="out"/>
<feColorMatrix type="matrix" values="0 0 0 0 0 0 0 0 0 0 0 0 0 0 0 0 0 0 0.25 0"/>
<feBlend mode="normal" in2="BackgroundImageFix" result="effect1_dropShadow"/>
<feBlend mode="normal" in="SourceGraphic" in2="effect1_dropShadow" result="shape"/>
</filter>
<filter id="filter1_d" x="124.443" y="55.5744" width="121.479" height="46.0575" filterUnits="userSpaceOnUse" color-interpolation-filters="sRGB">
<feFlood flood-opacity="0" result="BackgroundImageFix"/>
<feColorMatrix in="SourceAlpha" type="matrix" values="0 0 0 0 0 0 0 0 0 0 0 0 0 0 0 0 0 0 127 0" result="hardAlpha"/>
<feOffset dy="2"/>
<feGaussianBlur stdDeviation="4"/>
<feComposite in2="hardAlpha" operator="out"/>
<feColorMatrix type="matrix" values="0 0 0 0 0 0 0 0 0 0 0 0 0 0 0 0 0 0 0.25 0"/>
<feBlend mode="normal" in2="BackgroundImageFix" result="effect1_dropShadow"/>
<feBlend mode="normal" in="SourceGraphic" in2="effect1_dropShadow" result="shape"/>
</filter>
<filter id="filter2_d" x="272.69" y="38.0355" width="87.4717" height="46.0575" filterUnits="userSpaceOnUse" color-interpolation-filters="sRGB">
<feFlood flood-opacity="0" result="BackgroundImageFix"/>
<feColorMatrix in="SourceAlpha" type="matrix" values="0 0 0 0 0 0 0 0 0 0 0 0 0 0 0 0 0 0 127 0" result="hardAlpha"/>
<feOffset dy="2"/>
<feGaussianBlur stdDeviation="4"/>
<feComposite in2="hardAlpha" operator="out"/>
<feColorMatrix type="matrix" values="0 0 0 0 0 0 0 0 0 0 0 0 0 0 0 0 0 0 0.25 0"/>
<feBlend mode="normal" in2="BackgroundImageFix" result="effect1_dropShadow"/>
<feBlend mode="normal" in="SourceGraphic" in2="effect1_dropShadow" result="shape"/>
</filter>
<filter id="filter3_d" x="272.69" y="84.6919" width="87.4717" height="46.0575" filterUnits="userSpaceOnUse" color-interpolation-filters="sRGB">
<feFlood flood-opacity="0" result="BackgroundImageFix"/>
<feColorMatrix in="SourceAlpha" type="matrix" values="0 0 0 0 0 0 0 0 0 0 0 0 0 0 0 0 0 0 127 0" result="hardAlpha"/>
<feOffset dy="2"/>
<feGaussianBlur stdDeviation="4"/>
<feComposite in2="hardAlpha" operator="out"/>
<feColorMatrix type="matrix" values="0 0 0 0 0 0 0 0 0 0 0 0 0 0 0 0 0 0 0.25 0"/>
<feBlend mode="normal" in2="BackgroundImageFix" result="effect1_dropShadow"/>
<feBlend mode="normal" in="SourceGraphic" in2="effect1_dropShadow" result="shape"/>
</filter>
<filter id="filter4_d" x="143.347" y="-6" width="83.67" height="46.0575" filterUnits="userSpaceOnUse" color-interpolation-filters="sRGB">
<feFlood flood-opacity="0" result="BackgroundImageFix"/>
<feColorMatrix in="SourceAlpha" type="matrix" values="0 0 0 0 0 0 0 0 0 0 0 0 0 0 0 0 0 0 127 0" result="hardAlpha"/>
<feOffset dy="2"/>
<feGaussianBlur stdDeviation="4"/>
<feComposite in2="hardAlpha" operator="out"/>
<feColorMatrix type="matrix" values="0 0 0 0 0 0 0 0 0 0 0 0 0 0 0 0 0 0 0.25 0"/>
<feBlend mode="normal" in2="BackgroundImageFix" result="effect1_dropShadow"/>
<feBlend mode="normal" in="SourceGraphic" in2="effect1_dropShadow" result="shape"/>
</filter>
<filter id="filter5_d" x="15.7047" y="78.6031" width="81.9694" height="46.0575" filterUnits="userSpaceOnUse" color-interpolation-filters="sRGB">
<feFlood flood-opacity="0" result="BackgroundImageFix"/>
<feColorMatrix in="SourceAlpha" type="matrix" values="0 0 0 0 0 0 0 0 0 0 0 0 0 0 0 0 0 0 127 0" result="hardAlpha"/>
<feOffset dy="2"/>
<feGaussianBlur stdDeviation="4"/>
<feComposite in2="hardAlpha" operator="out"/>
<feColorMatrix type="matrix" values="0 0 0 0 0 0 0 0 0 0 0 0 0 0 0 0 0 0 0.25 0"/>
<feBlend mode="normal" in2="BackgroundImageFix" result="effect1_dropShadow"/>
<feBlend mode="normal" in="SourceGraphic" in2="effect1_dropShadow" result="shape"/>
</filter>
<clipPath id="clip0">
<rect width="359" height="126" fill="white"/>
</clipPath>
</defs>
</svg>
